<svg width="58" height="62" viewBox="0 0 58 62" fill="none" xmlns="http://www.w3.org/2000/svg">
<path d="M36.0341 12.007L28.9974 0L21.9608 12.007C18.7751 17.4444 22.6965 24.2891 28.9974 24.2891C35.2984 24.2891 39.2197 17.4444 36.0341 12.007Z" fill="white"/>
<path d="M1.30757e-05 32.4516C0.0256008 40.7484 2.89143 47.945 8.90455 53.683C20.6621 64.9032 38.9061 64.4299 50.1263 52.6659C50.1391 52.6531 50.1519 52.6339 50.1711 52.6211C52.1862 50.4974 53.7534 47.9898 54.8729 45.2839L55.9156 42.7699C58.4424 36.2642 59.0437 29.7457 55.6149 23.3744C53.7534 19.92 50.7661 18.0265 46.7488 17.9114C44.6314 17.8538 42.6867 18.4615 41.2922 19.9648C38.3816 23.1057 35.7141 26.4705 32.8355 29.6498C28.9909 33.8973 25.2103 38.228 21.0779 42.1941C18.0394 45.0983 14.1436 46.5121 9.80011 46.1538C6.40974 45.8724 2.88503 43.0833 2.14299 39.936C3.24326 40.5629 4.2156 41.177 5.2455 41.6696C8.90455 43.4223 12.3141 42.7187 15.5893 40.5821C18.3272 38.7974 20.3934 36.3282 22.965 33.6862C18.6279 33.1361 15.7876 30.4174 12.3973 28.799C10.3694 27.833 8.07294 27.1997 5.84041 26.9695C2.3349 26.6048 -0.00638385 28.9525 1.30757e-05 32.4516Z" fill="white"/>
</svg>
