<svg width="79" height="84" viewBox="0 0 79 84" fill="none" xmlns="http://www.w3.org/2000/svg">
<path d="M48.5269 16.1699L39.0507 0L29.5744 16.1699C25.2843 23.4924 30.5651 32.7102 39.0507 32.7102C47.5362 32.7102 52.817 23.4924 48.5269 16.1699Z" fill="url(#paint0_linear_649_3944)"/>
<path d="M1.76091e-05 43.7027C0.0344766 54.876 3.8939 64.5676 11.9918 72.295C27.8257 87.4053 52.3949 86.7678 67.5052 70.9253C67.5224 70.908 67.5397 70.8822 67.5655 70.865C70.2792 68.0049 72.3898 64.6279 73.8974 60.9839L75.3016 57.5982C78.7044 48.837 79.5142 40.0586 74.8967 31.4783C72.3898 26.8264 68.3667 24.2764 62.9566 24.1213C60.1052 24.0438 57.4863 24.8622 55.6082 26.8867C51.6885 31.1165 48.0962 35.6479 44.2196 39.9294C39.0421 45.6496 33.9508 51.4818 28.3856 56.8229C24.2936 60.734 19.0472 62.6379 13.1978 62.1555C8.63201 61.7764 3.88528 58.0204 2.88597 53.7819C4.3677 54.6262 5.67715 55.4532 7.06413 56.1165C11.9918 58.4769 16.5834 57.5293 20.9942 54.652C24.6813 52.2485 27.4639 48.9232 30.927 45.3653C25.0862 44.6244 21.2612 40.9632 16.6954 38.7836C13.9645 37.4828 10.8718 36.63 7.86529 36.3198C3.14441 35.8288 -0.00859714 38.9904 1.76091e-05 43.7027Z" fill="url(#paint1_linear_649_3944)"/>
<defs>
<linearGradient id="paint0_linear_649_3944" x1="28.051" y1="0" x2="58.6576" y2="18.3679" gradientUnits="userSpaceOnUse">
<stop offset="0.0767896" stop-color="#DEFBFF"/>
<stop offset="1" stop-color="#98EDF9"/>
</linearGradient>
<linearGradient id="paint1_linear_649_3944" x1="0" y1="24.1163" x2="61.8394" y2="97.0282" gradientUnits="userSpaceOnUse">
<stop offset="0.0767896" stop-color="#61C7F9"/>
<stop offset="1" stop-color="#0579CE"/>
</linearGradient>
</defs>
</svg>
