<svg width="180" height="169" viewBox="0 0 180 169" fill="none" xmlns="http://www.w3.org/2000/svg">
<path d="M0.481871 119.211L10.974 95.9919H19.8793L30.339 119.211H22.2109L20.527 115.227H10.2616L8.61002 119.211H0.481871ZM12.5608 109.722H18.2278L15.3781 102.954L12.5608 109.722ZM47.3748 125.752V116.231C46.1119 118.336 43.8451 119.599 40.0562 119.599C34.5511 119.599 30.2118 116.523 30.2118 110.078C30.2118 103.699 34.2921 100.007 40.121 100.007C43.8451 100.007 46.5005 101.432 47.9253 103.861L48.4435 100.428H54.9848V125.752H47.3748ZM42.8088 113.738C45.9823 113.738 47.5043 112.475 47.5043 109.981C47.5043 107.358 45.788 105.901 42.7764 105.901C39.6029 105.901 38.1133 107.326 38.1133 109.981C38.1133 112.507 39.5057 113.738 42.8088 113.738ZM66.1504 119.729C60.7748 119.729 58.087 116.555 58.087 111.18V100.428H65.7942V109.075C65.7942 111.957 66.7009 113.317 69.4535 113.317C71.947 113.317 73.1128 111.762 73.1128 108.88V100.428H80.9495V119.211H74.3109L73.5661 114.839C72.5622 117.786 70.1983 119.729 66.1504 119.729ZM90.8177 119.826C85.7659 119.826 83.2724 118.045 83.2724 114.58V114.547C83.2724 112.345 84.2115 110.726 86.2517 109.755C88.0651 108.88 89.911 108.524 94.6713 108.168C99.1401 107.812 100.112 107.585 100.112 106.646C100.112 105.772 99.3344 105.027 96.5171 105.027C93.1169 105.027 91.9187 105.836 91.7892 107.261H83.8229C84.3735 102.242 88.7776 99.9102 96.1609 99.9102C103.9 99.9102 107.624 102.08 107.624 108.103V119.211H101.018L100.306 115.422C98.8811 118.012 95.7399 119.826 90.8177 119.826ZM93.8617 115.001C97.2619 115.001 100.144 112.961 100.144 110.759V110.564C99.5611 111.115 98.3629 111.439 96.3228 111.698C93.9265 111.924 92.8578 112.151 92.2425 112.475C91.692 112.766 91.433 113.122 91.433 113.673V113.705C91.433 114.515 92.113 115.001 93.8617 115.001ZM109.758 127.144V120.992H112.834C115.23 120.992 115.943 120.409 116.914 118.595L117.141 118.174L107.75 100.428H116.105L120.93 110.176L121.189 111.147L121.513 110.208L126.37 100.428H134.466L124.33 119.567C120.897 126.205 119.505 127.144 113.708 127.144H109.758ZM141.258 119.826C136.206 119.826 133.713 118.045 133.713 114.58V114.547C133.713 112.345 134.652 110.726 136.692 109.755C138.506 108.88 140.351 108.524 145.112 108.168C149.581 107.812 150.552 107.585 150.552 106.646C150.552 105.772 149.775 105.027 146.958 105.027C143.557 105.027 142.359 105.836 142.23 107.261H134.263C134.814 102.242 139.218 99.9102 146.601 99.9102C154.341 99.9102 158.065 102.08 158.065 108.103V119.211H151.459L150.746 115.422C149.321 118.012 146.18 119.826 141.258 119.826ZM144.302 115.001C147.702 115.001 150.584 112.961 150.584 110.759V110.564C150.002 111.115 148.803 111.439 146.763 111.698C144.367 111.924 143.298 112.151 142.683 112.475C142.132 112.766 141.873 113.122 141.873 113.673V113.705C141.873 114.515 142.553 115.001 144.302 115.001ZM161.342 119.211V100.428H167.916L168.855 105.836C169.567 102.047 171.802 100.137 176.109 100.137H178.149V107.876H174.878C170.442 107.876 169.47 109.204 169.47 113.284V119.211H161.342Z" fill="url(#paint0_linear_649_3941)"/>
<path d="M26.9754 136.005H38.7952C47.7005 136.005 52.817 139.762 52.817 147.631V147.728C52.817 155.565 47.6034 159.224 38.9895 159.224H26.9754V136.005ZM38.3742 142.547H34.7149V152.618H38.5037C43.1021 152.618 44.786 151.128 44.786 147.663V147.598C44.786 143.972 43.0697 142.547 38.3742 142.547ZM55.5251 159.224V140.442H62.0988L63.0379 145.85C63.7504 142.061 65.9848 140.15 70.2917 140.15H72.3319V147.89H69.0612C64.6247 147.89 63.6532 149.218 63.6532 153.298V159.224H55.5251ZM78.9909 139.179C75.7526 139.179 74.4573 138.305 74.4573 135.779C74.4573 133.285 76.044 132.378 78.9585 132.378C81.9378 132.378 83.5569 133.285 83.5569 135.779C83.5569 138.207 82.0673 139.179 78.9909 139.179ZM74.943 159.224V140.507C75.8497 140.928 77.1774 141.154 78.9261 141.154C80.772 141.154 82.0349 140.928 82.9416 140.507V159.224H74.943ZM93.2569 159.224L84.0925 140.442H92.4149L97.3048 150.869L102.357 140.442H110.744L101.094 159.224H93.2569ZM122.462 159.839C113.038 159.839 110.092 155.727 110.092 150.319C110.092 144.425 114.237 139.891 123.045 139.891C131.529 139.891 135.48 144.036 135.48 149.898V151.743H117.669C118.155 153.589 119.709 154.528 122.948 154.528C125.344 154.528 126.38 154.075 126.995 153.233H135.318C133.731 157.896 129.586 159.839 122.462 159.839ZM122.948 145.267C120.066 145.299 118.414 146.271 117.799 147.955H127.74C127.255 146.012 125.765 145.267 122.948 145.267ZM138.032 159.224V140.442H144.606L145.545 145.85C146.258 142.061 148.492 140.15 152.799 140.15H154.839V147.89H151.568C147.132 147.89 146.16 149.218 146.16 153.298V159.224H138.032Z" fill="white"/>
<path d="M99.5269 16.1699L90.0507 0L80.5744 16.1699C76.2843 23.4924 81.5651 32.7102 90.0507 32.7102C98.5362 32.7102 103.817 23.4924 99.5269 16.1699Z" fill="url(#paint1_linear_649_3941)"/>
<path d="M51 43.7027C51.0345 54.876 54.8939 64.5676 62.9918 72.295C78.8257 87.4053 103.395 86.7678 118.505 70.9253C118.522 70.908 118.54 70.8822 118.566 70.865C121.279 68.0049 123.39 64.6279 124.897 60.9839L126.302 57.5982C129.704 48.837 130.514 40.0586 125.897 31.4783C123.39 26.8264 119.367 24.2764 113.957 24.1213C111.105 24.0438 108.486 24.8622 106.608 26.8867C102.689 31.1165 99.0962 35.6479 95.2196 39.9294C90.0421 45.6496 84.9508 51.4818 79.3856 56.8229C75.2936 60.734 70.0472 62.6379 64.1978 62.1555C59.632 61.7764 54.8853 58.0204 53.886 53.7819C55.3677 54.6262 56.6771 55.4532 58.0641 56.1165C62.9918 58.4769 67.5834 57.5293 71.9942 54.652C75.6813 52.2485 78.4639 48.9232 81.927 45.3653C76.0862 44.6244 72.2612 40.9632 67.6954 38.7836C64.9645 37.4828 61.8718 36.63 58.8653 36.3198C54.1444 35.8288 50.9914 38.9904 51 43.7027Z" fill="url(#paint2_linear_649_3941)"/>
<defs>
<linearGradient id="paint0_linear_649_3941" x1="1" y1="87.2105" x2="21.9391" y2="168.783" gradientUnits="userSpaceOnUse">
<stop offset="0.0767896" stop-color="#DEFBFF"/>
<stop offset="1" stop-color="#98EDF9"/>
</linearGradient>
<linearGradient id="paint1_linear_649_3941" x1="79.051" y1="0" x2="109.658" y2="18.3679" gradientUnits="userSpaceOnUse">
<stop offset="0.0767896" stop-color="#DEFBFF"/>
<stop offset="1" stop-color="#98EDF9"/>
</linearGradient>
<linearGradient id="paint2_linear_649_3941" x1="51" y1="24.1163" x2="112.839" y2="97.0282" gradientUnits="userSpaceOnUse">
<stop offset="0.0767896" stop-color="#61C7F9"/>
<stop offset="1" stop-color="#0579CE"/>
</linearGradient>
</defs>
</svg>
