<svg width="134" height="43" viewBox="0 0 134 43" fill="none" xmlns="http://www.w3.org/2000/svg">
<path d="M44.696 17.3925L49.9403 5.78709H54.3914L59.6196 17.3925H55.5568L54.7152 15.4016H49.5842L48.7587 17.3925H44.696ZM50.7334 12.65H53.566L52.1416 9.2671L50.7334 12.65ZM68.1346 20.6621V15.9034C67.5033 16.9555 66.3703 17.5868 64.4765 17.5868C61.7249 17.5868 59.5559 16.0491 59.5559 12.828C59.5559 9.63938 61.5954 7.79417 64.5089 7.79417C66.3703 7.79417 67.6975 8.50636 68.4097 9.72031L68.6687 8.00459H71.9383V20.6621H68.1346ZM65.8523 14.6571C67.4386 14.6571 68.1993 14.0258 68.1993 12.7795C68.1993 11.4684 67.3415 10.74 65.8361 10.74C64.2499 10.74 63.5054 11.4522 63.5054 12.7795C63.5054 14.042 64.2014 14.6571 65.8523 14.6571ZM77.5192 17.6515C74.8323 17.6515 73.4889 16.0653 73.4889 13.3784V8.00459H77.3412V12.3263C77.3412 13.7668 77.7944 14.4466 79.1702 14.4466C80.4165 14.4466 80.9992 13.6697 80.9992 12.2292V8.00459H84.9163V17.3925H81.5981L81.2258 15.2074C80.7241 16.6803 79.5425 17.6515 77.5192 17.6515ZM89.8487 17.7001C87.3237 17.7001 86.0774 16.8098 86.0774 15.0779V15.0617C86.0774 13.9611 86.5468 13.1518 87.5665 12.6662C88.4729 12.2292 89.3955 12.0511 91.7749 11.8731C94.0085 11.695 94.4941 11.5817 94.4941 11.1123C94.4941 10.6753 94.1057 10.303 92.6975 10.303C90.9979 10.303 90.399 10.7077 90.3343 11.4199H86.3525C86.6277 8.91101 88.829 7.74561 92.5194 7.74561C96.3879 7.74561 98.2493 8.83008 98.2493 11.8407V17.3925H94.9473L94.5912 15.4987C93.879 16.7936 92.309 17.7001 89.8487 17.7001ZM91.3702 15.2883C93.0697 15.2883 94.5103 14.2686 94.5103 13.1679V13.0708C94.219 13.346 93.6201 13.5079 92.6003 13.6373C91.4026 13.7506 90.8684 13.864 90.5609 14.0258C90.2857 14.1715 90.1562 14.3495 90.1562 14.6247V14.6409C90.1562 15.0455 90.4962 15.2883 91.3702 15.2883ZM99.3155 21.3581V18.2828H100.853C102.051 18.2828 102.407 17.9914 102.893 17.085L103.006 16.8746L98.312 8.00459H102.488L104.9 12.8766L105.029 13.3622L105.191 12.8928L107.619 8.00459H111.666L106.599 17.5706C104.884 20.8887 104.188 21.3581 101.29 21.3581H99.3155ZM115.06 17.7001C112.535 17.7001 111.289 16.8098 111.289 15.0779V15.0617C111.289 13.9611 111.758 13.1518 112.778 12.6662C113.685 12.2292 114.607 12.0511 116.987 11.8731C119.22 11.695 119.706 11.5817 119.706 11.1123C119.706 10.6753 119.317 10.303 117.909 10.303C116.21 10.303 115.611 10.7077 115.546 11.4199H111.564C111.839 8.91101 114.041 7.74561 117.731 7.74561C121.6 7.74561 123.461 8.83008 123.461 11.8407V17.3925H120.159L119.803 15.4987C119.091 16.7936 117.521 17.7001 115.06 17.7001ZM116.582 15.2883C118.281 15.2883 119.722 14.2686 119.722 13.1679V13.0708C119.431 13.346 118.832 13.5079 117.812 13.6373C116.614 13.7506 116.08 13.864 115.773 14.0258C115.497 14.1715 115.368 14.3495 115.368 14.6247V14.6409C115.368 15.0455 115.708 15.2883 116.582 15.2883ZM125.099 17.3925V8.00459H128.385L128.854 10.7077C129.21 8.81389 130.327 7.85891 132.48 7.85891H133.5V11.7274H131.865C129.647 11.7274 129.162 12.391 129.162 14.4305V17.3925H125.099Z" fill="url(#paint0_linear_648_3883)"/>
<path d="M45.9423 25.7871H51.8502C56.3014 25.7871 58.8588 27.6647 58.8588 31.5979V31.6465C58.8588 35.5635 56.2528 37.3925 51.9473 37.3925H45.9423V25.7871ZM51.6398 29.0567H49.8108V34.0906H51.7046C54.003 34.0906 54.8447 33.346 54.8447 31.6141V31.5817C54.8447 29.7689 53.9868 29.0567 51.6398 29.0567ZM60.2124 37.3925V28.0046H63.4981L63.9675 30.7077C64.3236 28.8139 65.4405 27.8589 67.5932 27.8589H68.6129V31.7274H66.9782C64.7607 31.7274 64.2751 32.391 64.2751 34.4305V37.3925H60.2124ZM71.9413 27.3733C70.3227 27.3733 69.6753 26.9363 69.6753 25.6738C69.6753 24.4275 70.4684 23.9743 71.9251 23.9743C73.4143 23.9743 74.2236 24.4275 74.2236 25.6738C74.2236 26.8877 73.479 27.3733 71.9413 27.3733ZM69.9181 37.3925V28.037C70.3713 28.2474 71.0349 28.3607 71.909 28.3607C72.8316 28.3607 73.4628 28.2474 73.916 28.037V37.3925H69.9181ZM79.0719 37.3925L74.4913 28.0046H78.6511L81.0952 33.2165L83.6202 28.0046H87.8124L82.989 37.3925H79.0719ZM93.6695 37.7001C88.9594 37.7001 87.4864 35.6444 87.4864 32.9413C87.4864 29.9955 89.5582 27.7294 93.9609 27.7294C98.2016 27.7294 100.176 29.8012 100.176 32.7309V33.6535H91.274C91.5168 34.5761 92.2937 35.0455 93.9123 35.0455C95.1101 35.0455 95.628 34.8189 95.9356 34.3981H100.095C99.3023 36.7289 97.2305 37.7001 93.6695 37.7001ZM93.9123 30.4163C92.4717 30.4325 91.6463 30.9181 91.3387 31.7598H96.3078C96.0651 30.7886 95.3205 30.4163 93.9123 30.4163ZM101.452 37.3925V28.0046H104.738L105.207 30.7077C105.563 28.8139 106.68 27.8589 108.833 27.8589H109.853V31.7274H108.218C106 31.7274 105.515 32.391 105.515 34.4305V37.3925H101.452Z" fill="#212550"/>
<path d="M24.2554 8.08222L19.5188 0L14.7823 8.08222C12.638 11.7423 15.2775 16.3496 19.5188 16.3496C23.7602 16.3496 26.3997 11.7423 24.2554 8.08222Z" fill="url(#paint1_linear_648_3883)"/>
<path d="M8.80159e-06 21.844C0.0172325 27.4288 1.94629 32.273 5.99387 36.1354C13.9082 43.688 26.1887 43.3693 33.7413 35.4507C33.7499 35.4421 33.7585 35.4292 33.7714 35.4206C35.1278 33.991 36.1827 32.3031 36.9363 30.4817L37.6382 28.7894C39.339 24.4103 39.7437 20.0226 37.4358 15.7339C36.1827 13.4087 34.1719 12.1341 31.4678 12.0566C30.0425 12.0179 28.7335 12.4269 27.7948 13.4388C25.8356 15.553 24.04 17.8179 22.1024 19.958C19.5145 22.8171 16.9697 25.7322 14.1881 28.4019C12.1427 30.3568 9.52042 31.3084 6.5967 31.0673C4.31455 30.8778 1.94199 29.0004 1.4425 26.8819C2.18312 27.3039 2.83762 27.7173 3.53088 28.0488C5.99387 29.2287 8.28893 28.755 10.4936 27.3168C12.3365 26.1155 13.7273 24.4534 15.4583 22.675C12.5389 22.3047 10.627 20.4747 8.3449 19.3853C6.97992 18.7351 5.43409 18.3088 3.93132 18.1538C1.57167 17.9084 -0.00429713 19.4886 8.80159e-06 21.844Z" fill="url(#paint2_linear_648_3883)"/>
<defs>
<linearGradient id="paint0_linear_648_3883" x1="44.955" y1="1.39252" x2="55.9615" y2="43.0163" gradientUnits="userSpaceOnUse">
<stop offset="0.0767896" stop-color="#61C7F9"/>
<stop offset="1" stop-color="#0579CE"/>
</linearGradient>
<linearGradient id="paint1_linear_648_3883" x1="14.0209" y1="0" x2="29.319" y2="9.18085" gradientUnits="userSpaceOnUse">
<stop offset="0.0767896" stop-color="#DEFBFF"/>
<stop offset="1" stop-color="#98EDF9"/>
</linearGradient>
<linearGradient id="paint2_linear_648_3883" x1="0" y1="12.0541" x2="30.9093" y2="48.4978" gradientUnits="userSpaceOnUse">
<stop offset="0.0767896" stop-color="#61C7F9"/>
<stop offset="1" stop-color="#0579CE"/>
</linearGradient>
</defs>
</svg>
