<svg width="21" height="20" viewBox="0 0 21 20" fill="none" xmlns="http://www.w3.org/2000/svg">
<path fill-rule="evenodd" clip-rule="evenodd" d="M10.5 1.53846C5.82682 1.53846 2.03846 5.32682 2.03846 10C2.03846 11.4 2.37786 12.7185 2.9782 13.8798C3.03465 13.989 3.0641 14.1101 3.0641 14.233V17.4359H6.26697C6.38989 17.4359 6.51102 17.4654 6.62022 17.5218C7.78153 18.1221 9.10001 18.4615 10.5 18.4615C15.1732 18.4615 18.9615 14.6732 18.9615 10C18.9615 5.32682 15.1732 1.53846 10.5 1.53846ZM0.5 10C0.5 4.47715 4.97715 0 10.5 0C16.0228 0 20.5 4.47715 20.5 10C20.5 15.5228 16.0228 20 10.5 20C8.91621 20 7.41649 19.6313 6.08388 18.9744H2.29487C1.87004 18.9744 1.52564 18.63 1.52564 18.2051V14.4161C0.868739 13.0835 0.5 11.5838 0.5 10Z" fill="#212550"/>
<path d="M8.44872 10C8.44872 10.5664 7.98952 11.0256 7.42308 11.0256C6.85663 11.0256 6.39744 10.5664 6.39744 10C6.39744 9.43355 6.85663 8.97436 7.42308 8.97436C7.98952 8.97436 8.44872 9.43355 8.44872 10Z" fill="#212550"/>
<path d="M11.5256 10C11.5256 10.5664 11.0664 11.0256 10.5 11.0256C9.93355 11.0256 9.47436 10.5664 9.47436 10C9.47436 9.43355 9.93355 8.97436 10.5 8.97436C11.0664 8.97436 11.5256 9.43355 11.5256 10Z" fill="#212550"/>
<path d="M14.6026 10C14.6026 10.5664 14.1434 11.0256 13.5769 11.0256C13.0105 11.0256 12.5513 10.5664 12.5513 10C12.5513 9.43355 13.0105 8.97436 13.5769 8.97436C14.1434 8.97436 14.6026 9.43355 14.6026 10Z" fill="#212550"/>
</svg>
