<svg width="428" height="345" viewBox="0 0 428 345" fill="none" xmlns="http://www.w3.org/2000/svg">
<g opacity="0.62">
<path d="M270.765 22.1315C203.15 42.6382 105.797 -18.2144 50.5882 8.31392C16.9298 22.1222 -7.50037 18.3662 -10.0423 22.1315C-12.5843 25.8968 -15.0732 820.923 -16 862.141L473.725 949C507.089 904.644 564.362 91.6185 526.551 40.958C479.286 -22.3676 339.089 1.40995 270.765 22.1315Z" fill="url(#paint0_linear_1784_23408)"/>
<path d="M270.765 22.1315C203.15 42.6382 105.797 -18.2144 50.5882 8.31392C16.9298 22.1222 -7.50037 18.3662 -10.0423 22.1315C-12.5843 25.8968 -15.0732 820.923 -16 862.141L473.725 949C507.089 904.644 564.362 91.6185 526.551 40.958C479.286 -22.3676 339.089 1.40995 270.765 22.1315Z" fill="#0579CE"/>
</g>
<defs>
<linearGradient id="paint0_linear_1784_23408" x1="-16" y1="0" x2="809.445" y2="430.759" gradientUnits="userSpaceOnUse">
<stop offset="0.0767896" stop-color="#61C7F9"/>
<stop offset="1" stop-color="#0579CE"/>
</linearGradient>
</defs>
</svg>
