<svg width="20" height="20" viewBox="0 0 20 20" fill="none" xmlns="http://www.w3.org/2000/svg">
<path d="M10 15.6251C9.65833 15.6251 9.375 15.3417 9.375 15.0001V14.1667C9.375 13.8251 9.65833 13.5417 10 13.5417C10.3417 13.5417 10.625 13.8251 10.625 14.1667V15.0001C10.625 15.3417 10.3417 15.6251 10 15.6251Z" fill="#212550"/>
<path d="M10 18.9583C9.65833 18.9583 9.375 18.675 9.375 18.3333V17.5C9.375 17.1583 9.65833 16.875 10 16.875C10.3417 16.875 10.625 17.1583 10.625 17.5V18.3333C10.625 18.675 10.3417 18.9583 10 18.9583Z" fill="#212550"/>
<path d="M1.66666 18.9583C1.61666 18.9583 1.56666 18.95 1.51666 18.9417C1.18332 18.8583 0.97499 18.5167 1.05832 18.1833L1.89166 14.85C1.97499 14.5167 2.30832 14.3083 2.64999 14.3917C2.98332 14.475 3.19166 14.8167 3.10832 15.15L2.27499 18.4833C2.19999 18.7667 1.94999 18.9583 1.66666 18.9583Z" fill="#212550"/>
<path d="M18.1272 18.7523C17.8438 18.7523 17.5938 18.5606 17.5188 18.2773L16.6855 14.9439C16.6022 14.6106 16.8022 14.2689 17.1438 14.1856C17.4772 14.1023 17.8188 14.3023 17.9022 14.6439L18.7355 17.9773C18.8188 18.3106 18.6188 18.6523 18.2772 18.7356C18.2272 18.7439 18.1772 18.7523 18.1272 18.7523Z" fill="#212550"/>
<path d="M15.95 4.41659C15.95 4.66659 15.7417 4.86659 15.5 4.86659H4.60833C4.35833 4.86659 4.15833 4.65825 4.15833 4.41659C4.15833 4.16659 4.36666 3.96659 4.60833 3.96659H5.22499L5.45833 2.87492C5.67499 1.80825 6.12499 0.833252 7.92499 0.833252H12.1667C13.9667 0.833252 14.425 1.80825 14.6417 2.86659L14.875 3.95825H15.4917C15.7417 3.95825 15.95 4.16659 15.95 4.41659Z" fill="#212550"/>
<path d="M16.2083 7.83324C16.1167 6.83324 15.85 5.7749 13.9083 5.7749H6.19167C4.25001 5.7749 3.99167 6.84157 3.89167 7.83324L3.55001 11.5166C3.50834 11.9749 3.65834 12.4332 3.97501 12.7832C4.30001 13.1332 4.75001 13.3332 5.23334 13.3332H6.36667C7.35001 13.3332 7.53334 12.7749 7.65834 12.3999L7.78334 12.0332C7.92501 11.6166 7.95834 11.5166 8.50001 11.5166H11.6C12.1417 11.5166 12.1583 11.5749 12.3167 12.0332L12.4417 12.3999C12.5583 12.7749 12.75 13.3332 13.725 13.3332H14.8583C15.3333 13.3332 15.7917 13.1332 16.1167 12.7832C16.4333 12.4416 16.5833 11.9749 16.5417 11.5166L16.2083 7.83324ZM8.23334 9.0999H6.42501C6.17501 9.0999 5.97501 8.89157 5.97501 8.6499C5.97501 8.40824 6.18334 8.1999 6.42501 8.1999H8.24167C8.49167 8.1999 8.69167 8.40824 8.69167 8.6499C8.69167 8.89157 8.48334 9.0999 8.23334 9.0999ZM13.675 9.0999H11.8583C11.6083 9.0999 11.4083 8.89157 11.4083 8.6499C11.4083 8.40824 11.6167 8.1999 11.8583 8.1999H13.675C13.925 8.1999 14.125 8.40824 14.125 8.6499C14.125 8.89157 13.925 9.0999 13.675 9.0999Z" fill="#212550"/>
</svg>
