<svg width="200" height="181" viewBox="0 0 200 181" fill="none" xmlns="http://www.w3.org/2000/svg">
<path d="M40.7578 180.704H159.24C162.496 180.712 165.635 179.482 168.028 177.259C178.009 167.963 185.994 156.71 191.491 144.194C196.989 131.677 199.883 118.162 199.996 104.478C200.507 48.8392 155.549 3.05835 100.241 2.92704C44.902 2.79566 6.57096e-05 47.8873 6.57096e-05 103.53C-0.0157365 117.378 2.81877 131.081 8.32511 143.773C13.8315 156.466 21.8904 167.874 31.9944 177.28C34.382 179.492 37.512 180.715 40.7578 180.704Z" fill="url(#paint0_linear_711_3101)"/>
<path d="M141.476 47.009V30.141H58.5247V47.0094C58.5247 51.2094 59.406 55.3626 61.1117 59.2007C62.8174 63.0387 65.3095 66.4761 68.427 69.2907L97.9487 95.9442L68.427 122.598C65.3095 125.412 62.8174 128.85 61.1117 132.688C59.406 136.526 58.5247 140.679 58.5247 144.879V161.748H141.476V144.879C141.476 140.679 140.594 136.526 138.889 132.688C137.183 128.85 134.691 125.413 131.573 122.598L102.052 95.9442L131.573 69.2902C134.691 66.4757 137.183 63.0383 138.889 59.2003C140.594 55.3622 141.476 51.209 141.476 47.009Z" fill="#E5E9F1"/>
<path d="M79.7871 79.547C89.1014 69.0311 100 89.9275 120.213 79.547L97.4773 92.259L79.7871 79.547Z" fill="#868FAE"/>
<path opacity="0.2" d="M79.7871 79.547C89.1014 69.0311 100 89.9275 120.213 79.547L97.4773 92.259L79.7871 79.547Z" fill="white"/>
<path opacity="0.2" d="M110.812 80.1098C112.99 80.1202 115.138 79.6127 117.081 78.6292C119.023 77.6456 120.704 76.2143 121.984 74.4532C130.674 62.3524 135.35 47.8306 135.352 32.9328V30.141H124.695V32.9328C124.695 47.9958 119.92 62.671 111.056 74.85C110.452 75.6802 109.857 76.5169 109.271 77.36C109.089 77.6229 108.982 77.9306 108.963 78.2497C108.943 78.5689 109.011 78.8873 109.159 79.1706C109.308 79.4538 109.531 79.6911 109.804 79.8566C110.078 80.0222 110.391 80.1098 110.711 80.1098H110.812Z" fill="white"/>
<path d="M142.983 12.1446H57.0168C55.3318 12.1446 53.9658 13.5106 53.9658 15.1956V27.7665C53.9658 29.4516 55.3318 30.8176 57.0168 30.8176H142.983C144.668 30.8176 146.034 29.4516 146.034 27.7665V15.1956C146.034 13.5106 144.668 12.1446 142.983 12.1446Z" fill="#D4D9E3"/>
<path d="M142.983 161.748H57.0168C55.3318 161.748 53.9658 163.114 53.9658 164.799V177.37C53.9658 179.055 55.3318 180.421 57.0168 180.421H142.983C144.668 180.421 146.034 179.055 146.034 177.37V164.799C146.034 163.114 144.668 161.748 142.983 161.748Z" fill="#D4D9E3"/>
<path d="M127.936 153.073L111.585 142.042C109.026 140.315 106.867 138.061 105.251 135.431C103.635 132.801 102.601 129.855 102.219 126.792H102.194C102.101 125.857 102.052 124.953 102.052 124.112V95.9442L120.213 79.547C104.516 73.9882 95.5547 91.0303 79.7873 79.547L97.954 95.9443V124.108C97.9539 125.006 97.898 125.902 97.7867 126.792V126.792C97.4037 129.855 96.3697 132.801 94.7541 135.431C93.1385 138.061 90.9788 140.315 88.42 142.042L72.0697 153.073C70.6497 154.031 69.4866 155.323 68.6825 156.835C67.8785 158.348 67.458 160.035 67.458 161.748H132.547C132.547 160.035 132.127 158.348 131.323 156.835C130.519 155.323 129.356 154.031 127.936 153.073Z" fill="#868FAE"/>
<path opacity="0.2" d="M110.711 111.779C110.391 111.779 110.078 111.866 109.804 112.032C109.531 112.197 109.308 112.435 109.159 112.718C109.011 113.001 108.943 113.32 108.963 113.639C108.982 113.958 109.089 114.266 109.271 114.529C109.857 115.371 110.452 116.208 111.056 117.038C119.92 129.217 124.695 143.893 124.695 158.956V161.748H135.352V158.956C135.35 144.058 130.674 129.536 121.984 117.435C120.704 115.674 119.023 114.243 117.081 113.259C115.138 112.276 112.99 111.768 110.812 111.779L110.711 111.779Z" fill="white"/>
<path d="M89.1779 10.2552C87.1891 10.253 85.2824 9.46192 83.8761 8.05561C82.4698 6.6493 81.6787 4.74257 81.6765 2.75375C81.668 2.25877 81.465 1.78703 81.1114 1.4405C80.7579 1.09398 80.2822 0.900499 79.7871 0.901893C79.296 0.901917 78.825 1.09703 78.4777 1.44432C78.1304 1.7916 77.9353 2.26261 77.9353 2.75375C77.933 4.75252 77.138 6.66878 75.7247 8.08213C74.3113 9.49548 72.3951 10.2905 70.3963 10.2927C69.9051 10.2927 69.4341 10.4878 69.0868 10.8351C68.7395 11.1824 68.5444 11.6534 68.5444 12.1446C68.5444 12.6357 68.7395 13.1067 69.0868 13.454C69.4341 13.8013 69.9051 13.9964 70.3963 13.9964C72.3951 13.9987 74.3113 14.7937 75.7247 16.207C77.138 17.6204 77.933 19.5366 77.9353 21.5354C77.9353 22.0265 78.1304 22.4976 78.4777 22.8449C78.8249 23.1921 79.296 23.3872 79.7871 23.3872C80.2782 23.3872 80.7493 23.1921 81.0966 22.8449C81.4439 22.4976 81.639 22.0265 81.639 21.5354C81.6412 19.5366 82.4362 17.6204 83.8495 16.207C85.2629 14.7937 87.1792 13.9987 89.1779 13.9964C89.6729 13.9879 90.1446 13.7849 90.4912 13.4314C90.8377 13.0778 91.0312 12.6021 91.0298 12.107C91.0298 11.6159 90.8346 11.1449 90.4874 10.7976C90.1401 10.4503 89.6691 10.2552 89.1779 10.2552Z" fill="#868FAE"/>
<path d="M61.2717 167.052C59.867 165.644 59.0781 163.736 59.0781 161.748C59.0781 159.759 59.867 157.851 61.2717 156.443C61.6157 156.087 61.8057 155.61 61.8007 155.115C61.7958 154.62 61.5962 154.147 61.2452 153.798C60.8979 153.451 60.4268 153.256 59.9357 153.256C59.4446 153.256 58.9736 153.451 58.6263 153.798C57.2113 155.21 55.2942 156.003 53.2954 156.003C51.2966 156.003 49.3795 155.21 47.9645 153.798C47.6173 153.451 47.1462 153.256 46.6551 153.256C46.1639 153.256 45.6929 153.451 45.3456 153.798C44.9983 154.145 44.8032 154.616 44.8032 155.107C44.8032 155.599 44.9983 156.07 45.3456 156.417C46.7574 157.832 47.5502 159.749 47.5502 161.748C47.5502 163.746 46.7574 165.664 45.3456 167.079C45.1737 167.25 45.0373 167.455 44.9442 167.679C44.8511 167.904 44.8032 168.145 44.8032 168.388C44.8032 168.631 44.8511 168.872 44.9442 169.097C45.0373 169.321 45.1737 169.525 45.3456 169.697C45.5176 169.869 45.7217 170.006 45.9464 170.099C46.1711 170.192 46.4119 170.24 46.6551 170.24C46.8983 170.24 47.1391 170.192 47.3638 170.099C47.5884 170.006 47.7926 169.869 47.9645 169.697C49.3795 168.286 51.2966 167.493 53.2954 167.493C55.2942 167.493 57.2113 168.286 58.6263 169.697C58.9823 170.041 59.4594 170.231 59.9544 170.226C60.4494 170.222 60.9226 170.022 61.2717 169.671C61.619 169.324 61.8141 168.853 61.8141 168.361C61.8141 167.87 61.619 167.399 61.2717 167.052Z" fill="#868FAE"/>
<path d="M150.617 99.5435C149.212 98.1356 148.423 96.228 148.423 94.2391C148.423 92.2503 149.212 90.3427 150.617 88.9348C150.961 88.5788 151.151 88.1017 151.146 87.6067C151.141 87.1116 150.941 86.6384 150.59 86.2894C150.243 85.9421 149.772 85.747 149.281 85.747C148.79 85.747 148.319 85.9421 147.971 86.2894C146.557 87.7011 144.639 88.494 142.641 88.494C140.642 88.494 138.725 87.7011 137.31 86.2894C136.962 85.9421 136.491 85.747 136 85.747C135.509 85.747 135.038 85.9421 134.691 86.2894C134.344 86.6367 134.148 87.1077 134.148 87.5988C134.148 88.09 134.344 88.561 134.691 88.9083C136.103 90.3232 136.895 92.2404 136.895 94.2391C136.895 96.2379 136.103 98.1551 134.691 99.57C134.344 99.9173 134.148 100.388 134.148 100.879C134.148 101.371 134.344 101.842 134.691 102.189C135.038 102.536 135.509 102.731 136 102.731C136.491 102.731 136.962 102.536 137.31 102.189C138.725 100.777 140.642 99.9843 142.641 99.9843C144.639 99.9843 146.557 100.777 147.971 102.189C148.328 102.533 148.805 102.723 149.3 102.718C149.795 102.713 150.268 102.513 150.617 102.162C150.964 101.815 151.159 101.344 151.159 100.853C151.159 100.362 150.964 99.8908 150.617 99.5435Z" fill="#868FAE"/>
<defs>
<linearGradient id="paint0_linear_711_3101" x1="100" y1="2.92676" x2="100" y2="180.705" gradientUnits="userSpaceOnUse">
<stop stop-color="#FBFDFE"/>
<stop offset="1" stop-color="#F0F5FA"/>
</linearGradient>
</defs>
</svg>
