<svg width="20" height="20" viewBox="0 0 20 20" fill="none" xmlns="http://www.w3.org/2000/svg">
<path d="M14 7C14 7.55228 13.5523 8 13 8C12.4477 8 12 7.55228 12 7C12 6.44772 12.4477 6 13 6C13.5523 6 14 6.44772 14 7Z" fill="#868FAE"/>
<path fill-rule="evenodd" clip-rule="evenodd" d="M7.58691 2.12322C10.4179 -0.707739 15.0458 -0.707739 17.8768 2.12322C20.6953 4.94169 20.7191 9.56775 17.88 12.2952C16.0615 14.2311 13.358 14.8615 10.9313 14.2249C10.7238 14.1741 10.5454 14.2233 10.4001 14.3685L4.99396 19.7747C4.84971 19.919 4.65405 20 4.45004 20H0.769231C0.344396 20 0 19.6556 0 19.2308V15.55C0 15.346 0.0810437 15.1503 0.225303 15.006L5.63149 9.59985C5.67163 9.55971 5.69151 9.52 5.70049 9.45261C5.71144 9.37055 5.70421 9.24819 5.66135 9.07375C5.01586 6.73469 5.67118 4.03895 7.58691 2.12322ZM16.7889 3.21107C14.5588 0.980924 10.9049 0.980924 8.67477 3.21107C7.14265 4.74319 6.6468 6.87324 7.14663 8.67262L7.15173 8.69194C7.28828 9.23816 7.35592 10.0511 6.71934 10.6877L1.53846 15.8686V18.4615H4.13141L9.31229 13.2807C9.85637 12.7366 10.5969 12.5555 11.3081 12.7332L11.3173 12.7356C13.2533 13.245 15.3699 12.73 16.7705 11.2293C16.7806 11.2185 16.791 11.2079 16.8017 11.1977C19.0076 9.09206 19.0263 5.44841 16.7889 3.21107Z" fill="#868FAE"/>
</svg>
