<svg width="396" height="188" viewBox="0 0 396 188" fill="none" xmlns="http://www.w3.org/2000/svg">
<rect x="0.5" y="0.5" width="395" height="187" rx="23.5" fill="white"/>
<path d="M164.507 132.753H231.491C233.332 132.758 235.107 132.062 236.46 130.806C242.102 125.55 246.617 119.188 249.725 112.112C252.833 105.036 254.469 97.3948 254.533 89.6589C254.822 58.2032 229.405 32.321 198.136 32.2468C166.85 32.1725 141.465 57.6651 141.465 89.1225C141.456 96.9519 143.059 104.698 146.172 111.874C149.285 119.05 153.841 125.5 159.553 130.817C160.903 132.068 162.672 132.759 164.507 132.753Z" fill="url(#paint0_linear_708_4918)"/>
<path d="M189.015 42.7755L140.089 60.5832C138.935 61.0032 138.34 62.2789 138.76 63.4327L159.675 120.896C160.095 122.05 161.371 122.644 162.525 122.224L211.451 104.417C212.605 103.997 213.2 102.721 212.78 101.567L191.865 44.1043C191.445 42.9505 190.169 42.3556 189.015 42.7755Z" fill="#E5E9F1"/>
<path d="M186.362 49.286L146.306 63.8651C145.407 64.1924 144.943 65.1866 145.271 66.0858L159.85 106.142C160.177 107.041 161.171 107.504 162.071 107.177L202.126 92.5981C203.026 92.2708 203.489 91.2765 203.162 90.3773L188.583 50.3215C188.256 49.4223 187.261 48.9587 186.362 49.286Z" fill="white"/>
<path d="M162.071 107.177L202.126 92.598C202.416 92.4911 202.671 92.3083 202.865 92.0688L166.422 75.0751C166.045 74.8994 165.637 74.7996 165.222 74.7815C164.806 74.7633 164.392 74.8272 164.001 74.9694C163.61 75.1116 163.251 75.3293 162.945 75.6102C162.638 75.8911 162.39 76.2296 162.214 76.6063L154.849 92.4018L159.85 106.142C159.928 106.355 160.047 106.552 160.201 106.72C160.354 106.887 160.54 107.023 160.746 107.119C160.952 107.215 161.175 107.27 161.402 107.28C161.63 107.29 161.857 107.255 162.071 107.177Z" fill="#D4D9E3"/>
<path d="M178.314 70.8035C182.17 70.8035 185.296 67.6776 185.296 63.8215C185.296 59.9654 182.17 56.8395 178.314 56.8395C174.458 56.8395 171.332 59.9654 171.332 63.8215C171.332 67.6776 174.458 70.8035 178.314 70.8035Z" fill="#D4D9E3"/>
<path d="M255.911 60.5832L206.985 42.7755C205.831 42.3556 204.555 42.9505 204.135 44.1042L183.22 101.567C182.8 102.721 183.395 103.997 184.549 104.417L233.475 122.224C234.629 122.644 235.905 122.05 236.325 120.896L257.24 63.4327C257.66 62.2789 257.065 61.0032 255.911 60.5832Z" fill="#E5E9F1"/>
<path d="M249.694 63.8651L209.638 49.286C208.739 48.9587 207.744 49.4223 207.417 50.3215L192.838 90.3773C192.511 91.2765 192.974 92.2708 193.874 92.5981L233.929 107.177C234.829 107.504 235.823 107.041 236.15 106.142L250.729 66.0859C251.057 65.1866 250.593 64.1924 249.694 63.8651Z" fill="white"/>
<path d="M233.929 107.177C234.361 107.334 234.838 107.313 235.254 107.119C235.671 106.925 235.993 106.573 236.15 106.142L240.575 93.9848L234.828 81.6603C234.652 81.2835 234.404 80.945 234.097 80.6641C233.791 80.3832 233.432 80.1655 233.041 80.0233C232.651 79.8811 232.236 79.8172 231.82 79.8354C231.405 79.8535 230.997 79.9533 230.621 80.129L214.825 87.4945L211.658 83.4203L204.793 96.5723L233.929 107.177Z" fill="#E5E9F1"/>
<path d="M193.874 92.598L233.929 107.177C234.22 107.281 234.532 107.305 234.835 107.246L217.841 70.8032C217.666 70.4264 217.418 70.0879 217.111 69.807C216.805 69.5262 216.446 69.3084 216.055 69.1662C215.664 69.024 215.249 68.9602 214.834 68.9783C214.419 68.9965 214.011 69.0962 213.634 69.2719L197.839 76.6374L192.838 90.3773C192.681 90.8091 192.702 91.2856 192.896 91.7021C193.09 92.1186 193.442 92.4409 193.874 92.598Z" fill="#D4D9E3"/>
<path d="M234.185 76.8087C238.041 76.8087 241.167 73.6828 241.167 69.8267C241.167 65.9706 238.041 62.8447 234.185 62.8447C230.329 62.8447 227.203 65.9706 227.203 69.8267C227.203 73.6828 230.329 76.8087 234.185 76.8087Z" fill="#D4D9E3"/>
<g filter="url(#filter0_d_708_4918)">
<path d="M224.033 40.4844H171.967C170.739 40.4844 169.744 41.4797 169.744 42.7075V103.858C169.744 105.086 170.739 106.082 171.967 106.082H224.033C225.261 106.082 226.256 105.086 226.256 103.858V42.7075C226.256 41.4797 225.261 40.4844 224.033 40.4844Z" fill="white"/>
</g>
<path d="M219.313 45.6948H176.687C175.73 45.6948 174.954 46.4705 174.954 47.4274V90.0538C174.954 91.0108 175.73 91.7865 176.687 91.7865H219.313C220.27 91.7865 221.046 91.0108 221.046 90.0538V47.4274C221.046 46.4705 220.27 45.6948 219.313 45.6948Z" fill="#E5E9F1"/>
<path d="M219.313 91.7865C219.773 91.7865 220.213 91.6039 220.538 91.279C220.863 90.954 221.046 90.5133 221.046 90.0538V77.1168L211.43 67.5012C211.136 67.2072 210.787 66.974 210.403 66.8149C210.019 66.6558 209.607 66.5739 209.192 66.5739C208.776 66.5739 208.364 66.6558 207.98 66.8149C207.596 66.974 207.247 67.2072 206.953 67.5012L194.629 79.8248L190.26 77.0794L188.307 91.7865H219.313Z" fill="#868FAE"/>
<path d="M219.313 91.7865C219.773 91.7865 220.213 91.6039 220.538 91.279C220.863 90.954 221.046 90.5133 221.046 90.0538V77.1168L211.43 67.5012C211.136 67.2072 210.787 66.974 210.403 66.8149C210.019 66.6558 209.607 66.5739 209.192 66.5739C208.776 66.5739 208.364 66.6558 207.98 66.8149C207.596 66.974 207.247 67.2072 206.953 67.5012L194.629 79.8248L190.26 77.0794L188.307 91.7865H219.313Z" fill="black" fill-opacity="0.15"/>
<path d="M176.687 91.7865H219.313C219.622 91.7849 219.924 91.7003 220.188 91.5416L191.755 63.1085C191.461 62.8146 191.112 62.5814 190.728 62.4223C190.344 62.2632 189.932 62.1813 189.516 62.1813C189.101 62.1813 188.689 62.2632 188.305 62.4223C187.921 62.5814 187.572 62.8146 187.278 63.1085L174.954 75.4322V90.0538C174.954 90.5133 175.137 90.9541 175.462 91.279C175.787 91.6039 176.227 91.7865 176.687 91.7865Z" fill="#868FAE"/>
<path d="M206.779 63.583C210.635 63.583 213.761 60.4571 213.761 56.601C213.761 52.745 210.635 49.619 206.779 49.619C202.923 49.619 199.797 52.745 199.797 56.601C199.797 60.4571 202.923 63.583 206.779 63.583Z" fill="#868FAE"/>
<path d="M198 124.425C205.228 124.425 211.087 118.566 211.087 111.338C211.087 104.11 205.228 98.2511 198 98.2511C190.772 98.2511 184.913 104.11 184.913 111.338C184.913 118.566 190.772 124.425 198 124.425Z" fill="#868FAE"/>
<path d="M203.07 110.09H199.248V106.268C199.247 105.937 199.116 105.62 198.882 105.387C198.648 105.153 198.331 105.022 198 105.022C197.669 105.022 197.352 105.153 197.118 105.387C196.884 105.62 196.753 105.937 196.752 106.268V110.09H192.983C192.667 110.085 192.359 110.197 192.12 110.405C191.881 110.612 191.727 110.901 191.688 111.215C191.671 111.389 191.69 111.564 191.745 111.729C191.8 111.895 191.888 112.047 192.005 112.176C192.122 112.305 192.265 112.408 192.424 112.479C192.584 112.549 192.756 112.586 192.93 112.586H196.752V116.354C196.747 116.671 196.859 116.979 197.067 117.218C197.274 117.457 197.563 117.611 197.877 117.65C198.051 117.667 198.226 117.648 198.391 117.593C198.557 117.538 198.709 117.45 198.838 117.333C198.967 117.216 199.07 117.073 199.141 116.914C199.211 116.754 199.248 116.582 199.248 116.408V112.586H203.07C203.234 112.586 203.396 112.554 203.548 112.491C203.7 112.429 203.837 112.337 203.954 112.221C204.07 112.105 204.162 111.967 204.225 111.816C204.287 111.664 204.32 111.502 204.32 111.338C204.32 111.174 204.287 111.011 204.225 110.86C204.162 110.708 204.07 110.571 203.954 110.455C203.837 110.339 203.7 110.247 203.548 110.185C203.396 110.122 203.234 110.09 203.07 110.09V110.09Z" fill="white"/>
<path d="M167.08 156.009C165.661 156.009 164.616 155.695 163.944 155.065C163.282 154.436 162.952 153.46 162.952 152.137V144.457H164.296V152.041C164.296 152.98 164.514 153.673 164.952 154.121C165.4 154.569 166.109 154.793 167.08 154.793C168.05 154.793 168.76 154.569 169.208 154.121C169.656 153.673 169.88 152.98 169.88 152.041V144.457H171.208V152.137C171.208 153.46 170.872 154.436 170.2 155.065C169.538 155.695 168.498 156.009 167.08 156.009ZM180.308 149.721C180.585 150.34 180.724 151.055 180.724 151.865C180.724 152.676 180.585 153.391 180.308 154.009C180.031 154.617 179.62 155.092 179.076 155.433C178.543 155.764 177.897 155.929 177.14 155.929C176.543 155.929 176.004 155.817 175.524 155.593C175.055 155.369 174.676 155.039 174.388 154.601V158.985H173.108V147.977H174.356V149.177C174.644 148.719 175.023 148.372 175.492 148.137C175.972 147.903 176.521 147.785 177.14 147.785C177.897 147.785 178.543 147.956 179.076 148.297C179.62 148.628 180.031 149.103 180.308 149.721ZM179.06 153.497C179.263 153.039 179.364 152.495 179.364 151.865C179.364 151.215 179.263 150.671 179.06 150.233C178.868 149.796 178.58 149.465 178.196 149.241C177.823 149.017 177.375 148.905 176.852 148.905C176.351 148.905 175.913 149.012 175.54 149.225C175.167 149.439 174.879 149.753 174.676 150.169C174.473 150.585 174.372 151.087 174.372 151.673V152.057C174.372 152.644 174.473 153.145 174.676 153.561C174.879 153.977 175.167 154.292 175.54 154.505C175.913 154.719 176.351 154.825 176.852 154.825C177.375 154.825 177.823 154.713 178.196 154.489C178.58 154.255 178.868 153.924 179.06 153.497ZM182.186 144.457H183.466V155.753H182.186V144.457ZM188.798 155.945C187.945 155.945 187.22 155.764 186.622 155.401C186.036 155.039 185.598 154.537 185.31 153.897C185.044 153.321 184.91 152.644 184.91 151.865C184.91 151.108 185.044 150.431 185.31 149.833C185.598 149.193 186.036 148.692 186.622 148.329C187.22 147.967 187.945 147.785 188.798 147.785C189.652 147.785 190.372 147.967 190.958 148.329C191.556 148.692 191.998 149.193 192.286 149.833C192.553 150.452 192.686 151.129 192.686 151.865C192.686 152.601 192.553 153.279 192.286 153.897C191.998 154.537 191.556 155.039 190.958 155.401C190.372 155.764 189.652 155.945 188.798 155.945ZM188.798 154.825C189.353 154.825 189.817 154.713 190.19 154.489C190.564 154.255 190.846 153.929 191.038 153.513C191.23 153.087 191.326 152.537 191.326 151.865C191.326 151.183 191.23 150.633 191.038 150.217C190.846 149.801 190.564 149.481 190.19 149.257C189.817 149.023 189.353 148.905 188.798 148.905C188.244 148.905 187.774 149.023 187.39 149.257C187.017 149.481 186.74 149.801 186.558 150.217C186.366 150.633 186.27 151.183 186.27 151.865C186.27 152.537 186.366 153.087 186.558 153.513C186.75 153.929 187.033 154.255 187.406 154.489C187.78 154.713 188.244 154.825 188.798 154.825ZM200.491 149.321C200.705 149.78 200.811 150.388 200.811 151.145V155.753H199.531V154.649C198.966 155.513 198.006 155.945 196.651 155.945C195.99 155.945 195.425 155.833 194.955 155.609C194.486 155.385 194.155 155.06 193.963 154.633C193.835 154.324 193.771 153.983 193.771 153.609C193.771 153.236 193.835 152.905 193.963 152.617C194.209 152.073 194.641 151.7 195.259 151.497C195.889 151.284 196.689 151.177 197.659 151.177H199.531V150.921C199.531 150.687 199.515 150.479 199.483 150.297C199.451 150.116 199.398 149.94 199.323 149.769C199.057 149.161 198.427 148.857 197.435 148.857C196.422 148.857 195.777 149.145 195.499 149.721C195.403 149.945 195.355 150.175 195.355 150.409H194.059C194.081 149.94 194.161 149.561 194.299 149.273C194.513 148.772 194.886 148.399 195.419 148.153C195.963 147.908 196.63 147.785 197.419 147.785C198.23 147.785 198.886 147.913 199.387 148.169C199.899 148.415 200.267 148.799 200.491 149.321ZM196.971 154.873C197.547 154.873 198.027 154.772 198.411 154.569C198.806 154.356 199.094 154.047 199.275 153.641C199.446 153.268 199.531 152.799 199.531 152.233V152.153H197.755C197.083 152.153 196.523 152.217 196.075 152.345C195.638 152.463 195.35 152.676 195.211 152.985C195.137 153.156 195.099 153.327 195.099 153.497C195.099 153.689 195.137 153.881 195.211 154.073C195.329 154.351 195.542 154.553 195.851 154.681C196.161 154.809 196.534 154.873 196.971 154.873ZM209.839 144.457V155.753H208.575V154.569C208.287 155.017 207.903 155.359 207.423 155.593C206.943 155.817 206.399 155.929 205.791 155.929C205.045 155.929 204.399 155.764 203.855 155.433C203.311 155.092 202.901 154.617 202.623 154.009C202.346 153.391 202.207 152.676 202.207 151.865C202.207 151.055 202.346 150.34 202.623 149.721C202.901 149.103 203.311 148.628 203.855 148.297C204.399 147.956 205.045 147.785 205.791 147.785C206.389 147.785 206.927 147.903 207.407 148.137C207.887 148.361 208.271 148.692 208.559 149.129V144.457H209.839ZM208.559 151.673C208.559 151.087 208.458 150.585 208.255 150.169C208.053 149.753 207.765 149.439 207.391 149.225C207.029 149.012 206.597 148.905 206.095 148.905C205.573 148.905 205.119 149.017 204.735 149.241C204.351 149.465 204.063 149.796 203.871 150.233C203.669 150.671 203.567 151.215 203.567 151.865C203.567 152.495 203.669 153.039 203.871 153.497C204.063 153.924 204.351 154.255 204.735 154.489C205.119 154.713 205.573 154.825 206.095 154.825C206.597 154.825 207.029 154.719 207.391 154.505C207.765 154.292 208.053 153.977 208.255 153.561C208.458 153.145 208.559 152.644 208.559 152.057V151.673ZM215.168 149.065H213.904V147.977H215.168V146.761C215.168 145.919 215.371 145.3 215.776 144.905C216.192 144.5 216.838 144.297 217.712 144.297C218.086 144.297 218.4 144.329 218.656 144.393V145.481C218.432 145.417 218.176 145.385 217.888 145.385C216.928 145.385 216.448 145.876 216.448 146.857V147.977H218.624V149.065H216.448V155.753H215.168V149.065ZM220.514 146.585C220.247 146.585 220.034 146.516 219.874 146.377C219.725 146.228 219.65 146.031 219.65 145.785C219.65 145.551 219.73 145.359 219.89 145.209C220.05 145.06 220.258 144.985 220.514 144.985C220.749 144.985 220.946 145.06 221.106 145.209C221.266 145.359 221.346 145.551 221.346 145.785C221.346 146.02 221.266 146.212 221.106 146.361C220.946 146.511 220.749 146.585 220.514 146.585ZM219.858 147.977H221.138V155.753H219.858V147.977ZM223.014 144.457H224.294V155.753H223.014V144.457ZM231.547 154.297C231.717 154.137 231.856 153.951 231.963 153.737C232.069 153.513 232.133 153.273 232.155 153.017H233.435C233.371 153.828 233.061 154.495 232.507 155.017C232.165 155.316 231.76 155.545 231.291 155.705C230.821 155.855 230.299 155.929 229.723 155.929C228.848 155.929 228.101 155.753 227.483 155.401C226.864 155.049 226.416 154.548 226.139 153.897C225.872 153.353 225.739 152.676 225.739 151.865C225.739 151.449 225.771 151.076 225.835 150.745C225.899 150.415 226 150.105 226.139 149.817C226.427 149.177 226.869 148.681 227.467 148.329C228.064 147.967 228.784 147.785 229.627 147.785C230.469 147.785 231.184 147.961 231.771 148.313C232.368 148.665 232.805 149.151 233.083 149.769C233.232 150.111 233.333 150.468 233.387 150.841C233.451 151.215 233.483 151.652 233.483 152.153H227.035C227.067 152.719 227.163 153.183 227.323 153.545C227.515 153.972 227.813 154.303 228.219 154.537C228.624 154.761 229.12 154.873 229.707 154.873C230.091 154.873 230.437 154.825 230.747 154.729C231.067 154.633 231.333 154.489 231.547 154.297ZM229.643 148.857C228.491 148.857 227.717 149.305 227.323 150.201C227.195 150.5 227.109 150.825 227.067 151.177H232.171C232.128 150.783 232.043 150.431 231.915 150.121C231.733 149.705 231.451 149.391 231.067 149.177C230.683 148.964 230.208 148.857 229.643 148.857Z" fill="#868FAE"/>
<rect x="0.5" y="0.5" width="395" height="187" rx="23.5" stroke="#D6E1EA" stroke-dasharray="6 6"/>
<defs>
<filter id="filter0_d_708_4918" x="159.274" y="31.4108" width="77.4514" height="86.5362" filterUnits="userSpaceOnUse" color-interpolation-filters="sRGB">
<feFlood flood-opacity="0" result="BackgroundImageFix"/>
<feColorMatrix in="SourceAlpha" type="matrix" values="0 0 0 0 0 0 0 0 0 0 0 0 0 0 0 0 0 0 127 0" result="hardAlpha"/>
<feOffset dy="1.39593"/>
<feGaussianBlur stdDeviation="5.23473"/>
<feComposite in2="hardAlpha" operator="out"/>
<feColorMatrix type="matrix" values="0 0 0 0 0 0 0 0 0 0 0 0 0 0 0 0 0 0 0.1 0"/>
<feBlend mode="normal" in2="BackgroundImageFix" result="effect1_dropShadow_708_4918"/>
<feBlend mode="normal" in="SourceGraphic" in2="effect1_dropShadow_708_4918" result="shape"/>
</filter>
<linearGradient id="paint0_linear_708_4918" x1="198" y1="32.2466" x2="198" y2="132.753" gradientUnits="userSpaceOnUse">
<stop stop-color="#FBFDFE"/>
<stop offset="1" stop-color="#F0F5FA"/>
</linearGradient>
</defs>
</svg>
