<svg width="428" height="511" viewBox="0 0 428 511" fill="none" xmlns="http://www.w3.org/2000/svg">
<g clip-path="url(#clip0_647_3605)">
<rect x="2.20996" y="281.947" width="351.826" height="761.82" rx="27.1505" transform="rotate(-30 2.20996 281.947)" fill="white"/>
<rect x="215.858" y="615.795" width="315.625" height="292.999" rx="18.1004" transform="rotate(-30 215.858 615.795)" fill="#F2F2F3"/>
<rect x="93.6805" y="404.178" width="315.625" height="226.254" rx="18.1004" transform="rotate(-30 93.6805 404.178)" fill="#F2F2F3"/>
<rect x="54.0861" y="335.598" width="315.625" height="61.0887" rx="18.1004" transform="rotate(-30 54.0861 335.598)" fill="#F2F2F3"/>
</g>
<g filter="url(#filter0_d_647_3605)">
<g clip-path="url(#clip1_647_3605)">
<rect x="104.786" y="90.196" width="351.826" height="761.82" rx="27.1505" transform="rotate(12.3187 104.786 90.196)" fill="white"/>
<rect x="53.6831" y="409.047" width="148.197" height="380.107" rx="18.1004" transform="rotate(12.3187 53.6831 409.047)" fill="#F2F2F3"/>
<rect x="216.151" y="444.526" width="148.197" height="380.107" rx="18.1004" transform="rotate(12.3187 216.151 444.526)" fill="#F2F2F3"/>
<rect x="109.678" y="152.635" width="314.494" height="244.355" rx="18.1004" transform="rotate(12.3187 109.678 152.635)" fill="#F2F2F3"/>
</g>
</g>
<defs>
<filter id="filter0_d_647_3605" x="-288.527" y="-117.958" width="967.818" height="1280.9" filterUnits="userSpaceOnUse" color-interpolation-filters="sRGB">
<feFlood flood-opacity="0" result="BackgroundImageFix"/>
<feColorMatrix in="SourceAlpha" type="matrix" values="0 0 0 0 0 0 0 0 0 0 0 0 0 0 0 0 0 0 127 0" result="hardAlpha"/>
<feOffset dy="22.6254"/>
<feGaussianBlur stdDeviation="115.39"/>
<feColorMatrix type="matrix" values="0 0 0 0 0 0 0 0 0 0 0 0 0 0 0 0 0 0 0.25 0"/>
<feBlend mode="normal" in2="BackgroundImageFix" result="effect1_dropShadow_647_3605"/>
<feBlend mode="normal" in="SourceGraphic" in2="effect1_dropShadow_647_3605" result="shape"/>
</filter>
<clipPath id="clip0_647_3605">
<rect x="2.20996" y="281.947" width="351.826" height="761.82" rx="27.1505" transform="rotate(-30 2.20996 281.947)" fill="white"/>
</clipPath>
<clipPath id="clip1_647_3605">
<rect x="104.786" y="90.196" width="351.826" height="761.82" rx="27.1505" transform="rotate(12.3187 104.786 90.196)" fill="white"/>
</clipPath>
</defs>
</svg>
