<svg width="20" height="20" viewBox="0 0 20 20" fill="none" xmlns="http://www.w3.org/2000/svg">
<path fill-rule="evenodd" clip-rule="evenodd" d="M19.7747 6.37915C20.0751 6.67955 20.0751 7.1666 19.7747 7.46701L13.6209 13.6209C13.3204 13.9213 12.8334 13.9213 12.533 13.6209C12.2326 13.3205 12.2326 12.8334 12.533 12.533L17.3737 7.69231L6.92308 7.69231C3.94924 7.69231 1.53846 10.1031 1.53846 13.0769L1.53846 19.2308C1.53846 19.6556 1.19406 20 0.769229 20C0.344396 20 -2.76652e-06 19.6556 -2.74795e-06 19.2308L-2.47896e-06 13.0769C-2.31183e-06 9.25341 3.09957 6.15385 6.92308 6.15385L17.3737 6.15385L12.533 1.31316C12.2326 1.01276 12.2326 0.525705 12.533 0.225302C12.8334 -0.0751012 13.3204 -0.0751011 13.6209 0.225302L19.7747 6.37915Z" fill="#212550"/>
</svg>
