<svg width="42" height="42" viewBox="0 0 42 42" fill="none" xmlns="http://www.w3.org/2000/svg">
<path d="M30.905 39.6726C29.9775 39.6726 28.7875 39.3751 27.3 38.5001L22.0675 35.4026C21.525 35.0876 20.475 35.0876 19.95 35.4026L14.7 38.5001C11.6025 40.3376 9.78252 39.6026 8.96002 39.0076C8.15502 38.4126 6.89502 36.8901 7.71752 33.3901L8.96002 28.0176C9.10002 27.4576 8.82002 26.4951 8.40002 26.0751L4.06002 21.7351C1.89002 19.5651 2.06502 17.7101 2.36252 16.8001C2.66002 15.8901 3.60502 14.2801 6.61502 13.7726L12.1975 12.8451C12.7225 12.7576 13.475 12.1976 13.7025 11.7251L16.8 5.54756C18.2 2.73006 20.0375 2.31006 21 2.31006C21.9625 2.31006 23.8 2.73006 25.2 5.54756L28.28 11.7076C28.525 12.1801 29.2775 12.7401 29.8025 12.8276L35.385 13.7551C38.4125 14.2626 39.3575 15.8726 39.6375 16.7826C39.9175 17.6926 40.0925 19.5476 37.94 21.7176L33.6 26.0751C33.18 26.4951 32.9175 27.4401 33.04 28.0176L34.2825 33.3901C35.0875 36.8901 33.845 38.4126 33.04 39.0076C32.6025 39.3226 31.9025 39.6726 30.905 39.6726ZM21 32.5326C21.8575 32.5326 22.715 32.7426 23.3975 33.1451L28.63 36.2426C30.1525 37.1526 31.115 37.1526 31.4825 36.8901C31.85 36.6276 32.1125 35.7001 31.7275 33.9851L30.485 28.6126C30.1525 27.1601 30.695 25.2876 31.745 24.2201L36.085 19.8801C36.9425 19.0226 37.3275 18.1826 37.1525 17.6051C36.96 17.0276 36.155 16.5551 34.965 16.3626L29.3825 15.4351C28.035 15.2076 26.565 14.1226 25.9525 12.8976L22.8725 6.73756C22.3125 5.61756 21.6125 4.95256 21 4.95256C20.3875 4.95256 19.6875 5.61756 19.145 6.73756L16.0475 12.8976C15.435 14.1226 13.965 15.2076 12.6175 15.4351L7.05252 16.3626C5.86252 16.5551 5.05752 17.0276 4.86502 17.6051C4.67252 18.1826 5.07502 19.0401 5.93252 19.8801L10.2725 24.2201C11.3225 25.2701 11.865 27.1601 11.5325 28.6126L10.29 33.9851C9.88752 35.7176 10.1675 36.6276 10.535 36.8901C10.9025 37.1526 11.8475 37.1351 13.3875 36.2426L18.62 33.1451C19.285 32.7426 20.1425 32.5326 21 32.5326Z" fill="#AEB0C3"/>
</svg>
