<svg width="20" height="20" viewBox="0 0 20 20" fill="none" xmlns="http://www.w3.org/2000/svg">
<path fill-rule="evenodd" clip-rule="evenodd" d="M10 1.53846C5.32682 1.53846 1.53846 5.32682 1.53846 10C1.53846 11.4 1.87786 12.7185 2.4782 13.8798C2.53465 13.989 2.5641 14.1101 2.5641 14.233V17.4359H5.76697C5.88989 17.4359 6.01102 17.4654 6.12022 17.5218C7.28153 18.1221 8.60001 18.4615 10 18.4615C14.6732 18.4615 18.4615 14.6732 18.4615 10C18.4615 5.32682 14.6732 1.53846 10 1.53846ZM0 10C0 4.47715 4.47715 0 10 0C15.5228 0 20 4.47715 20 10C20 15.5228 15.5228 20 10 20C8.41621 20 6.91649 19.6313 5.58388 18.9744H1.79487C1.37004 18.9744 1.02564 18.63 1.02564 18.2051V14.4161C0.368739 13.0835 0 11.5838 0 10Z" fill="#868FAE"/>
<path fill-rule="evenodd" clip-rule="evenodd" d="M10.0002 6.1537C9.29214 6.1537 8.71815 6.72769 8.71815 7.43575C8.71815 7.86058 8.37375 8.20498 7.94892 8.20498C7.52409 8.20498 7.17969 7.86058 7.17969 7.43575C7.17969 5.87802 8.44247 4.61523 10.0002 4.61523C11.5579 4.61523 12.8207 5.87802 12.8207 7.43575C12.8207 7.99609 12.6565 8.52044 12.3734 8.9605C12.196 9.23613 11.9886 9.49928 11.7974 9.73691C11.7624 9.78038 11.7281 9.82292 11.6943 9.86473C11.5357 10.0611 11.39 10.2413 11.2555 10.4263C10.9236 10.8824 10.7694 11.2252 10.7694 11.5383C10.7694 11.9631 10.425 12.3075 10.0002 12.3075C9.57537 12.3075 9.23097 11.9631 9.23097 11.5383C9.23097 10.7186 9.63344 10.0406 10.0114 9.52113C10.1712 9.30162 10.3462 9.08512 10.5053 8.88825C10.5372 8.84882 10.5685 8.81017 10.5988 8.77245C10.7887 8.53639 10.9504 8.32872 11.0796 8.128C11.2078 7.92876 11.2823 7.69212 11.2823 7.43575C11.2823 6.72769 10.7083 6.1537 10.0002 6.1537Z" fill="#868FAE"/>
<path d="M11.0258 14.6152C11.0258 15.1817 10.5666 15.6409 10.0002 15.6409C9.43375 15.6409 8.97456 15.1817 8.97456 14.6152C8.97456 14.0488 9.43375 13.5896 10.0002 13.5896C10.5666 13.5896 11.0258 14.0488 11.0258 14.6152Z" fill="#868FAE"/>
</svg>
