<svg width="396" height="86" viewBox="0 0 396 86" fill="none" xmlns="http://www.w3.org/2000/svg">
<rect x="0.7" y="0.7" width="394.6" height="84.6" rx="23.3" fill="#F3F3F3" stroke="#C7CBE0" stroke-width="1.4" stroke-dasharray="6 6"/>
<path d="M28.7676 33.912H27.0716V39H25.7276V27.704H29.8876C31.6903 27.704 32.837 28.248 33.3276 29.336C33.509 29.7627 33.5996 30.2373 33.5996 30.76C33.5996 31.3147 33.509 31.8 33.3276 32.216C32.8583 33.272 31.8556 33.8373 30.3196 33.912L34.2876 39H32.6876L28.7676 33.912ZM27.0716 32.776H29.5996C30.2716 32.776 30.805 32.6907 31.1996 32.52C31.605 32.3493 31.8823 32.0933 32.0316 31.752C32.1596 31.4747 32.2236 31.1547 32.2236 30.792C32.2236 30.44 32.165 30.136 32.0476 29.88C31.8876 29.5173 31.605 29.256 31.1996 29.096C30.805 28.936 30.2716 28.856 29.5996 28.856H27.0716V32.776ZM40.3354 37.544C40.5061 37.384 40.6447 37.1973 40.7514 36.984C40.8581 36.76 40.9221 36.52 40.9434 36.264H42.2234C42.1594 37.0747 41.8501 37.7413 41.2954 38.264C40.9541 38.5627 40.5487 38.792 40.0794 38.952C39.6101 39.1013 39.0874 39.176 38.5114 39.176C37.6367 39.176 36.8901 39 36.2714 38.648C35.6527 38.296 35.2047 37.7947 34.9274 37.144C34.6607 36.6 34.5274 35.9227 34.5274 35.112C34.5274 34.696 34.5594 34.3227 34.6234 33.992C34.6874 33.6613 34.7887 33.352 34.9274 33.064C35.2154 32.424 35.6581 31.928 36.2554 31.576C36.8527 31.2133 37.5727 31.032 38.4154 31.032C39.2581 31.032 39.9727 31.208 40.5594 31.56C41.1567 31.912 41.5941 32.3973 41.8714 33.016C42.0207 33.3573 42.1221 33.7147 42.1754 34.088C42.2394 34.4613 42.2714 34.8987 42.2714 35.4H35.8234C35.8554 35.9653 35.9514 36.4293 36.1114 36.792C36.3034 37.2187 36.6021 37.5493 37.0074 37.784C37.4127 38.008 37.9087 38.12 38.4954 38.12C38.8794 38.12 39.2261 38.072 39.5354 37.976C39.8554 37.88 40.1221 37.736 40.3354 37.544ZM38.4314 32.104C37.2794 32.104 36.5061 32.552 36.1114 33.448C35.9834 33.7467 35.8981 34.072 35.8554 34.424H40.9594C40.9167 34.0293 40.8314 33.6773 40.7034 33.368C40.5221 32.952 40.2394 32.6373 39.8554 32.424C39.4714 32.2107 38.9967 32.104 38.4314 32.104ZM50.493 31.224V39H49.213V37.928C48.669 38.7707 47.8104 39.192 46.637 39.192C45.6664 39.192 44.925 38.92 44.413 38.376C43.901 37.8213 43.645 37.0053 43.645 35.928V31.224H44.925V35.688C44.925 36.5093 45.0904 37.112 45.421 37.496C45.7624 37.88 46.2744 38.072 46.957 38.072C47.6824 38.072 48.237 37.864 48.621 37.448C49.0157 37.032 49.213 36.4347 49.213 35.656V31.224H50.493ZM59.5656 32.968C59.843 33.5867 59.9816 34.3013 59.9816 35.112C59.9816 35.9227 59.843 36.6373 59.5656 37.256C59.2883 37.864 58.8776 38.3387 58.3336 38.68C57.8003 39.0107 57.155 39.176 56.3976 39.176C55.8003 39.176 55.2616 39.064 54.7816 38.84C54.3123 38.616 53.9336 38.2853 53.6456 37.848V42.232H52.3656V31.224H53.6136V32.424C53.9016 31.9653 54.2803 31.6187 54.7496 31.384C55.2296 31.1493 55.779 31.032 56.3976 31.032C57.155 31.032 57.8003 31.2027 58.3336 31.544C58.8776 31.8747 59.2883 32.3493 59.5656 32.968ZM58.3176 36.744C58.5203 36.2853 58.6216 35.7413 58.6216 35.112C58.6216 34.4613 58.5203 33.9173 58.3176 33.48C58.1256 33.0427 57.8376 32.712 57.4536 32.488C57.0803 32.264 56.6323 32.152 56.1096 32.152C55.6083 32.152 55.171 32.2587 54.7976 32.472C54.4243 32.6853 54.1363 33 53.9336 33.416C53.731 33.832 53.6296 34.3333 53.6296 34.92V35.304C53.6296 35.8907 53.731 36.392 53.9336 36.808C54.1363 37.224 54.4243 37.5387 54.7976 37.752C55.171 37.9653 55.6083 38.072 56.1096 38.072C56.6323 38.072 57.0803 37.96 57.4536 37.736C57.8376 37.5013 58.1256 37.1707 58.3176 36.744ZM61.4438 27.704H62.7238V39H61.4438V27.704ZM68.056 39.192C67.2027 39.192 66.4774 39.0107 65.88 38.648C65.2934 38.2853 64.856 37.784 64.568 37.144C64.3014 36.568 64.168 35.8907 64.168 35.112C64.168 34.3547 64.3014 33.6773 64.568 33.08C64.856 32.44 65.2934 31.9387 65.88 31.576C66.4774 31.2133 67.2027 31.032 68.056 31.032C68.9094 31.032 69.6294 31.2133 70.216 31.576C70.8134 31.9387 71.256 32.44 71.544 33.08C71.8107 33.6987 71.944 34.376 71.944 35.112C71.944 35.848 71.8107 36.5253 71.544 37.144C71.256 37.784 70.8134 38.2853 70.216 38.648C69.6294 39.0107 68.9094 39.192 68.056 39.192ZM68.056 38.072C68.6107 38.072 69.0747 37.96 69.448 37.736C69.8214 37.5013 70.104 37.176 70.296 36.76C70.488 36.3333 70.584 35.784 70.584 35.112C70.584 34.4293 70.488 33.88 70.296 33.464C70.104 33.048 69.8214 32.728 69.448 32.504C69.0747 32.2693 68.6107 32.152 68.056 32.152C67.5014 32.152 67.032 32.2693 66.648 32.504C66.2747 32.728 65.9974 33.048 65.816 33.464C65.624 33.88 65.528 34.4293 65.528 35.112C65.528 35.784 65.624 36.3333 65.816 36.76C66.008 37.176 66.2907 37.5013 66.664 37.736C67.0374 37.96 67.5014 38.072 68.056 38.072ZM79.7489 32.568C79.9622 33.0267 80.0689 33.6347 80.0689 34.392V39H78.7889V37.896C78.2236 38.76 77.2636 39.192 75.9089 39.192C75.2476 39.192 74.6822 39.08 74.2129 38.856C73.7436 38.632 73.4129 38.3067 73.2209 37.88C73.0929 37.5707 73.0289 37.2293 73.0289 36.856C73.0289 36.4827 73.0929 36.152 73.2209 35.864C73.4662 35.32 73.8982 34.9467 74.5169 34.744C75.1462 34.5307 75.9462 34.424 76.9169 34.424H78.7889V34.168C78.7889 33.9333 78.7729 33.7253 78.7409 33.544C78.7089 33.3627 78.6556 33.1867 78.5809 33.016C78.3142 32.408 77.6849 32.104 76.6929 32.104C75.6796 32.104 75.0342 32.392 74.7569 32.968C74.6609 33.192 74.6129 33.4213 74.6129 33.656H73.3169C73.3382 33.1867 73.4182 32.808 73.5569 32.52C73.7702 32.0187 74.1436 31.6453 74.6769 31.4C75.2209 31.1547 75.8876 31.032 76.6769 31.032C77.4876 31.032 78.1436 31.16 78.6449 31.416C79.1569 31.6613 79.5249 32.0453 79.7489 32.568ZM76.2289 38.12C76.8049 38.12 77.2849 38.0187 77.6689 37.816C78.0636 37.6027 78.3516 37.2933 78.5329 36.888C78.7036 36.5147 78.7889 36.0453 78.7889 35.48V35.4H77.0129C76.3409 35.4 75.7809 35.464 75.3329 35.592C74.8956 35.7093 74.6076 35.9227 74.4689 36.232C74.3942 36.4027 74.3569 36.5733 74.3569 36.744C74.3569 36.936 74.3942 37.128 74.4689 37.32C74.5862 37.5973 74.7996 37.8 75.1089 37.928C75.4182 38.056 75.7916 38.12 76.2289 38.12ZM89.0969 27.704V39H87.8329V37.816C87.5449 38.264 87.1609 38.6053 86.6809 38.84C86.2009 39.064 85.6569 39.176 85.0489 39.176C84.3022 39.176 83.6569 39.0107 83.1129 38.68C82.5689 38.3387 82.1582 37.864 81.8809 37.256C81.6036 36.6373 81.4649 35.9227 81.4649 35.112C81.4649 34.3013 81.6036 33.5867 81.8809 32.968C82.1582 32.3493 82.5689 31.8747 83.1129 31.544C83.6569 31.2027 84.3022 31.032 85.0489 31.032C85.6462 31.032 86.1849 31.1493 86.6649 31.384C87.1449 31.608 87.5289 31.9387 87.8169 32.376V27.704H89.0969ZM87.8169 34.92C87.8169 34.3333 87.7156 33.832 87.5129 33.416C87.3102 33 87.0222 32.6853 86.6489 32.472C86.2862 32.2587 85.8542 32.152 85.3529 32.152C84.8302 32.152 84.3769 32.264 83.9929 32.488C83.6089 32.712 83.3209 33.0427 83.1289 33.48C82.9262 33.9173 82.8249 34.4613 82.8249 35.112C82.8249 35.7413 82.9262 36.2853 83.1289 36.744C83.3209 37.1707 83.6089 37.5013 83.9929 37.736C84.3769 37.96 84.8302 38.072 85.3529 38.072C85.8542 38.072 86.2862 37.9653 86.6489 37.752C87.0222 37.5387 87.3102 37.224 87.5129 36.808C87.7156 36.392 87.8169 35.8907 87.8169 35.304V34.92ZM93.962 27.704H97.818C99.0127 27.704 100.015 27.9333 100.826 28.392C101.637 28.84 102.234 29.496 102.618 30.36C102.981 31.16 103.162 32.1573 103.162 33.352C103.162 34.536 102.981 35.5387 102.618 36.36C102.234 37.2133 101.637 37.8693 100.826 38.328C100.015 38.776 99.0127 39 97.818 39H93.962V27.704ZM97.658 37.816C98.5967 37.816 99.3647 37.6507 99.962 37.32C100.57 36.9893 101.018 36.4987 101.306 35.848C101.455 35.528 101.562 35.1653 101.626 34.76C101.701 34.3547 101.738 33.8853 101.738 33.352C101.738 32.8187 101.701 32.3493 101.626 31.944C101.562 31.5387 101.455 31.176 101.306 30.856C101.018 30.2053 100.57 29.7147 99.962 29.384C99.3647 29.0533 98.5967 28.888 97.658 28.888H95.306V37.816H97.658ZM108.242 31.128C108.519 31.128 108.78 31.16 109.026 31.224V32.376C108.78 32.3227 108.519 32.296 108.242 32.296C107.548 32.296 107.026 32.504 106.674 32.92C106.322 33.3253 106.146 33.912 106.146 34.68V39H104.866V31.224H106.13V32.232C106.343 31.88 106.626 31.608 106.978 31.416C107.33 31.224 107.751 31.128 108.242 31.128ZM110.834 29.832C110.567 29.832 110.354 29.7627 110.194 29.624C110.045 29.4747 109.97 29.2773 109.97 29.032C109.97 28.7973 110.05 28.6053 110.21 28.456C110.37 28.3067 110.578 28.232 110.834 28.232C111.069 28.232 111.266 28.3067 111.426 28.456C111.586 28.6053 111.666 28.7973 111.666 29.032C111.666 29.2667 111.586 29.4587 111.426 29.608C111.266 29.7573 111.069 29.832 110.834 29.832ZM110.178 31.224H111.458V39H110.178V31.224ZM112.518 31.224H113.91L116.342 37.544L118.758 31.224H120.166L117.046 39H115.622L112.518 31.224ZM126.257 37.544C126.428 37.384 126.567 37.1973 126.673 36.984C126.78 36.76 126.844 36.52 126.865 36.264H128.145C128.081 37.0747 127.772 37.7413 127.217 38.264C126.876 38.5627 126.471 38.792 126.001 38.952C125.532 39.1013 125.009 39.176 124.433 39.176C123.559 39.176 122.812 39 122.193 38.648C121.575 38.296 121.127 37.7947 120.849 37.144C120.583 36.6 120.449 35.9227 120.449 35.112C120.449 34.696 120.481 34.3227 120.545 33.992C120.609 33.6613 120.711 33.352 120.849 33.064C121.137 32.424 121.58 31.928 122.177 31.576C122.775 31.2133 123.495 31.032 124.337 31.032C125.18 31.032 125.895 31.208 126.481 31.56C127.079 31.912 127.516 32.3973 127.793 33.016C127.943 33.3573 128.044 33.7147 128.097 34.088C128.161 34.4613 128.193 34.8987 128.193 35.4H121.745C121.777 35.9653 121.873 36.4293 122.033 36.792C122.225 37.2187 122.524 37.5493 122.929 37.784C123.335 38.008 123.831 38.12 124.417 38.12C124.801 38.12 125.148 38.072 125.457 37.976C125.777 37.88 126.044 37.736 126.257 37.544ZM124.353 32.104C123.201 32.104 122.428 32.552 122.033 33.448C121.905 33.7467 121.82 34.072 121.777 34.424H126.881C126.839 34.0293 126.753 33.6773 126.625 33.368C126.444 32.952 126.161 32.6373 125.777 32.424C125.393 32.2107 124.919 32.104 124.353 32.104ZM133.023 31.128C133.3 31.128 133.562 31.16 133.807 31.224V32.376C133.562 32.3227 133.3 32.296 133.023 32.296C132.33 32.296 131.807 32.504 131.455 32.92C131.103 33.3253 130.927 33.912 130.927 34.68V39H129.647V31.224H130.911V32.232C131.124 31.88 131.407 31.608 131.759 31.416C132.111 31.224 132.532 31.128 133.023 31.128ZM135.9 27.704H137.26L135.852 32.232H134.796L135.9 27.704ZM140.665 39.208C139.897 39.208 139.262 39.0853 138.761 38.84C138.26 38.584 137.902 38.2107 137.689 37.72C137.518 37.3467 137.433 36.904 137.433 36.392H138.697C138.697 36.744 138.756 37.0373 138.873 37.272C139.14 37.8907 139.742 38.2 140.681 38.2C141.14 38.2 141.518 38.136 141.817 38.008C142.126 37.88 142.334 37.688 142.441 37.432C142.516 37.24 142.553 37.0693 142.553 36.92C142.553 36.7387 142.521 36.584 142.457 36.456C142.372 36.2747 142.233 36.1307 142.041 36.024C141.86 35.9067 141.641 35.816 141.385 35.752C141.14 35.6773 140.788 35.592 140.329 35.496C139.7 35.3573 139.177 35.1813 138.761 34.968C138.345 34.744 138.052 34.44 137.881 34.056C137.774 33.8107 137.721 33.5333 137.721 33.224C137.721 32.8933 137.785 32.6 137.913 32.344C138.094 31.928 138.414 31.608 138.873 31.384C139.342 31.1493 139.913 31.032 140.585 31.032C141.278 31.032 141.86 31.1493 142.329 31.384C142.798 31.608 143.134 31.944 143.337 32.392C143.486 32.7013 143.561 33.0853 143.561 33.544H142.329C142.329 33.2773 142.276 33.0267 142.169 32.792C142.052 32.5253 141.854 32.328 141.577 32.2C141.3 32.0613 140.964 31.992 140.569 31.992C140.174 31.992 139.849 32.0507 139.593 32.168C139.348 32.2853 139.177 32.4507 139.081 32.664C139.017 32.8027 138.985 32.9573 138.985 33.128C138.985 33.2773 139.012 33.4053 139.065 33.512C139.15 33.6933 139.294 33.8427 139.497 33.96C139.7 34.0773 139.918 34.1733 140.153 34.248C140.388 34.312 140.729 34.392 141.177 34.488C141.86 34.648 142.409 34.84 142.825 35.064C143.241 35.2773 143.54 35.5813 143.721 35.976C143.828 36.2213 143.881 36.504 143.881 36.824C143.881 37.1867 143.817 37.512 143.689 37.8C143.486 38.2587 143.118 38.6107 142.585 38.856C142.052 39.0907 141.412 39.208 140.665 39.208ZM25.7276 47.704H27.0716V57.816H30.8796V59H25.7276V47.704ZM32.6154 49.832C32.3487 49.832 32.1354 49.7627 31.9754 49.624C31.8261 49.4747 31.7514 49.2773 31.7514 49.032C31.7514 48.7973 31.8314 48.6053 31.9914 48.456C32.1514 48.3067 32.3594 48.232 32.6154 48.232C32.8501 48.232 33.0474 48.3067 33.2074 48.456C33.3674 48.6053 33.4474 48.7973 33.4474 49.032C33.4474 49.2667 33.3674 49.4587 33.2074 49.608C33.0474 49.7573 32.8501 49.832 32.6154 49.832ZM31.9594 51.224H33.2394V59H31.9594V51.224ZM38.5236 59.176C37.7023 59.176 36.993 59.0053 36.3956 58.664C35.7983 58.312 35.3556 57.816 35.0676 57.176C34.8116 56.5787 34.6836 55.8907 34.6836 55.112C34.6836 54.3227 34.8116 53.64 35.0676 53.064C35.3556 52.4133 35.793 51.912 36.3796 51.56C36.977 51.208 37.6916 51.032 38.5236 51.032C39.6223 51.032 40.5023 51.3307 41.1636 51.928C41.4516 52.1947 41.6756 52.5093 41.8356 52.872C42.0063 53.2347 42.097 53.6347 42.1076 54.072H40.7316C40.689 53.5067 40.4863 53.0427 40.1236 52.68C39.9316 52.5093 39.697 52.3813 39.4196 52.296C39.153 52.2 38.8543 52.152 38.5236 52.152C38.001 52.152 37.553 52.2693 37.1796 52.504C36.817 52.728 36.5396 53.048 36.3476 53.464C36.1556 53.88 36.0596 54.4293 36.0596 55.112C36.0596 55.784 36.1556 56.3333 36.3476 56.76C36.5396 57.1653 36.817 57.4853 37.1796 57.72C37.553 57.944 38.001 58.056 38.5236 58.056C38.865 58.056 39.169 58.0133 39.4356 57.928C39.713 57.832 39.9423 57.6987 40.1236 57.528C40.305 57.368 40.4436 57.1707 40.5396 56.936C40.6463 56.7013 40.705 56.4453 40.7156 56.168H42.1076C42.0543 57.0533 41.745 57.7627 41.1796 58.296C40.8596 58.584 40.4703 58.8027 40.0116 58.952C39.5636 59.1013 39.0676 59.176 38.5236 59.176ZM48.9916 57.544C49.1623 57.384 49.301 57.1973 49.4076 56.984C49.5143 56.76 49.5783 56.52 49.5996 56.264H50.8796C50.8156 57.0747 50.5063 57.7413 49.9516 58.264C49.6103 58.5627 49.205 58.792 48.7356 58.952C48.2663 59.1013 47.7436 59.176 47.1676 59.176C46.293 59.176 45.5463 59 44.9276 58.648C44.309 58.296 43.861 57.7947 43.5836 57.144C43.317 56.6 43.1836 55.9227 43.1836 55.112C43.1836 54.696 43.2156 54.3227 43.2796 53.992C43.3436 53.6613 43.445 53.352 43.5836 53.064C43.8716 52.424 44.3143 51.928 44.9116 51.576C45.509 51.2133 46.229 51.032 47.0716 51.032C47.9143 51.032 48.629 51.208 49.2156 51.56C49.813 51.912 50.2503 52.3973 50.5276 53.016C50.677 53.3573 50.7783 53.7147 50.8316 54.088C50.8956 54.4613 50.9276 54.8987 50.9276 55.4H44.4796C44.5116 55.9653 44.6076 56.4293 44.7676 56.792C44.9596 57.2187 45.2583 57.5493 45.6636 57.784C46.069 58.008 46.565 58.12 47.1516 58.12C47.5356 58.12 47.8823 58.072 48.1916 57.976C48.5116 57.88 48.7783 57.736 48.9916 57.544ZM47.0876 52.104C45.9356 52.104 45.1623 52.552 44.7676 53.448C44.6396 53.7467 44.5543 54.072 44.5116 54.424H49.6156C49.573 54.0293 49.4876 53.6773 49.3596 53.368C49.1783 52.952 48.8956 52.6373 48.5116 52.424C48.1276 52.2107 47.653 52.104 47.0876 52.104ZM56.2373 51.032C57.2079 51.032 57.9439 51.3093 58.4453 51.864C58.9573 52.408 59.2133 53.2187 59.2133 54.296V59H57.9333V54.536C57.9333 53.7147 57.7679 53.112 57.4373 52.728C57.1066 52.344 56.5999 52.152 55.9173 52.152C55.1919 52.152 54.6319 52.36 54.2373 52.776C53.8533 53.192 53.6613 53.7947 53.6613 54.584V59H52.3813V51.224H53.6613V52.28C54.1946 51.448 55.0533 51.032 56.2373 51.032ZM63.7899 59.208C63.0219 59.208 62.3872 59.0853 61.8859 58.84C61.3846 58.584 61.0272 58.2107 60.8139 57.72C60.6432 57.3467 60.5579 56.904 60.5579 56.392H61.8219C61.8219 56.744 61.8806 57.0373 61.9979 57.272C62.2646 57.8907 62.8672 58.2 63.8059 58.2C64.2646 58.2 64.6432 58.136 64.9419 58.008C65.2512 57.88 65.4592 57.688 65.5659 57.432C65.6406 57.24 65.6779 57.0693 65.6779 56.92C65.6779 56.7387 65.6459 56.584 65.5819 56.456C65.4966 56.2747 65.3579 56.1307 65.1659 56.024C64.9846 55.9067 64.7659 55.816 64.5099 55.752C64.2646 55.6773 63.9126 55.592 63.4539 55.496C62.8246 55.3573 62.3019 55.1813 61.8859 54.968C61.4699 54.744 61.1766 54.44 61.0059 54.056C60.8992 53.8107 60.8459 53.5333 60.8459 53.224C60.8459 52.8933 60.9099 52.6 61.0379 52.344C61.2192 51.928 61.5392 51.608 61.9979 51.384C62.4672 51.1493 63.0379 51.032 63.7099 51.032C64.4032 51.032 64.9846 51.1493 65.4539 51.384C65.9232 51.608 66.2592 51.944 66.4619 52.392C66.6112 52.7013 66.6859 53.0853 66.6859 53.544H65.4539C65.4539 53.2773 65.4006 53.0267 65.2939 52.792C65.1766 52.5253 64.9792 52.328 64.7019 52.2C64.4246 52.0613 64.0886 51.992 63.6939 51.992C63.2992 51.992 62.9739 52.0507 62.7179 52.168C62.4726 52.2853 62.3019 52.4507 62.2059 52.664C62.1419 52.8027 62.1099 52.9573 62.1099 53.128C62.1099 53.2773 62.1366 53.4053 62.1899 53.512C62.2752 53.6933 62.4192 53.8427 62.6219 53.96C62.8246 54.0773 63.0432 54.1733 63.2779 54.248C63.5126 54.312 63.8539 54.392 64.3019 54.488C64.9846 54.648 65.5339 54.84 65.9499 55.064C66.3659 55.2773 66.6646 55.5813 66.8459 55.976C66.9526 56.2213 67.0059 56.504 67.0059 56.824C67.0059 57.1867 66.9419 57.512 66.8139 57.8C66.6112 58.2587 66.2432 58.6107 65.7099 58.856C65.1766 59.0907 64.5366 59.208 63.7899 59.208ZM73.8041 57.544C73.9748 57.384 74.1135 57.1973 74.2201 56.984C74.3268 56.76 74.3908 56.52 74.4121 56.264H75.6921C75.6281 57.0747 75.3188 57.7413 74.7641 58.264C74.4228 58.5627 74.0175 58.792 73.5481 58.952C73.0788 59.1013 72.5561 59.176 71.9801 59.176C71.1055 59.176 70.3588 59 69.7401 58.648C69.1215 58.296 68.6735 57.7947 68.3961 57.144C68.1295 56.6 67.9961 55.9227 67.9961 55.112C67.9961 54.696 68.0281 54.3227 68.0921 53.992C68.1561 53.6613 68.2575 53.352 68.3961 53.064C68.6841 52.424 69.1268 51.928 69.7241 51.576C70.3215 51.2133 71.0415 51.032 71.8841 51.032C72.7268 51.032 73.4415 51.208 74.0281 51.56C74.6255 51.912 75.0628 52.3973 75.3401 53.016C75.4895 53.3573 75.5908 53.7147 75.6441 54.088C75.7081 54.4613 75.7401 54.8987 75.7401 55.4H69.2921C69.3241 55.9653 69.4201 56.4293 69.5801 56.792C69.7721 57.2187 70.0708 57.5493 70.4761 57.784C70.8815 58.008 71.3775 58.12 71.9641 58.12C72.3481 58.12 72.6948 58.072 73.0041 57.976C73.3241 57.88 73.5908 57.736 73.8041 57.544ZM71.9001 52.104C70.7481 52.104 69.9748 52.552 69.5801 53.448C69.4521 53.7467 69.3668 54.072 69.3241 54.424H74.4281C74.3855 54.0293 74.3001 53.6773 74.1721 53.368C73.9908 52.952 73.7081 52.6373 73.3241 52.424C72.9401 52.2107 72.4655 52.104 71.9001 52.104Z" fill="#868FAE"/>
<rect x="165.7" y="20.7" width="205.6" height="46.6" rx="23.3" fill="white"/>
<path d="M195.205 35.1125C195.61 34.7068 196.058 34.3706 196.631 34.2792C196.753 34.2598 196.877 34.25 197 34.25C197.123 34.25 197.247 34.2598 197.369 34.2792C197.942 34.3706 198.39 34.7068 198.794 35.1125C199.188 35.5078 199.628 36.0628 200.161 36.7352L201.588 38.534C201.845 38.8586 201.791 39.3303 201.466 39.5877C201.141 39.845 200.67 39.7905 200.412 39.466L199.014 37.703C198.456 36.999 198.073 36.517 197.75 36.1895V49C197.75 49.4142 197.414 49.75 197 49.75C196.586 49.75 196.25 49.4142 196.25 49V36.1895C195.927 36.517 195.544 36.999 194.986 37.703L193.588 39.466C193.33 39.7905 192.859 39.845 192.534 39.5877C192.209 39.3303 192.155 38.8586 192.412 38.534L193.839 36.7352C194.372 36.0628 194.812 35.5078 195.205 35.1125Z" fill="#212550"/>
<path d="M205.6 42.5496C205.351 42.2184 204.881 42.1516 204.55 42.4003C204.219 42.6491 204.152 43.1192 204.401 43.4504C204.934 44.1607 205.25 45.0424 205.25 46V47C205.25 47.9577 205.248 48.3492 205.198 48.6648C204.91 50.4834 203.483 51.9096 201.665 52.1977C201.349 52.2477 200.958 52.25 200 52.25H194C193.042 52.25 192.651 52.2477 192.335 52.1977C190.517 51.9096 189.09 50.4834 188.802 48.6648C188.752 48.3492 188.75 47.9577 188.75 47V46C188.75 45.0424 189.066 44.1607 189.599 43.4504C189.848 43.1192 189.781 42.6491 189.45 42.4003C189.119 42.1516 188.649 42.2184 188.4 42.5496C187.678 43.5106 187.25 44.7064 187.25 46L187.25 47.0808C187.25 47.9328 187.25 48.4518 187.321 48.8995C187.71 51.3599 189.64 53.2895 192.1 53.6792C192.548 53.7501 193.067 53.7501 193.919 53.75H200.081C200.933 53.7501 201.452 53.7501 201.899 53.6792C204.36 53.2895 206.289 51.3599 206.679 48.8995C206.75 48.4518 206.75 47.9328 206.75 47.0808L206.75 46C206.75 44.7064 206.322 43.5106 205.6 42.5496Z" fill="#212550"/>
<path d="M220.247 48.272C218.754 48.272 217.655 47.9467 216.951 47.296C216.247 46.6453 215.895 45.632 215.895 44.256V36.704H217.735V44.112C217.735 44.9653 217.932 45.6 218.327 46.016C218.732 46.4213 219.372 46.624 220.247 46.624C221.111 46.624 221.746 46.4213 222.151 46.016C222.556 45.6 222.759 44.9653 222.759 44.112V36.704H224.599V44.256C224.599 45.632 224.247 46.6453 223.543 47.296C222.85 47.9467 221.751 48.272 220.247 48.272ZM233.837 41.904C234.125 42.544 234.269 43.2693 234.269 44.08C234.269 44.4747 234.232 44.8587 234.157 45.232C234.082 45.5947 233.976 45.9307 233.837 46.24C233.56 46.8587 233.149 47.3387 232.605 47.68C232.061 48.0213 231.405 48.192 230.637 48.192C230.093 48.192 229.602 48.1013 229.165 47.92C228.728 47.728 228.36 47.4507 228.061 47.088V51.232H226.285V40.16H228.013V41.104C228.312 40.72 228.68 40.432 229.117 40.24C229.565 40.048 230.072 39.952 230.637 39.952C231.405 39.952 232.061 40.1227 232.605 40.464C233.149 40.8053 233.56 41.2853 233.837 41.904ZM232.125 45.568C232.296 45.1627 232.381 44.6667 232.381 44.08C232.381 43.4827 232.296 42.9813 232.125 42.576C231.954 42.2027 231.704 41.9253 231.373 41.744C231.042 41.552 230.648 41.456 230.189 41.456C229.528 41.456 229.005 41.6693 228.621 42.096C228.237 42.512 228.045 43.104 228.045 43.872V44.272C228.045 45.0507 228.237 45.6533 228.621 46.08C229.005 46.496 229.528 46.704 230.189 46.704C230.648 46.704 231.042 46.608 231.373 46.416C231.704 46.224 231.954 45.9413 232.125 45.568ZM235.551 36.704H237.327V48H235.551V36.704ZM242.652 48.192C241.756 48.192 240.999 48.0053 240.38 47.632C239.762 47.2587 239.303 46.7413 239.004 46.08C238.738 45.5147 238.604 44.848 238.604 44.08C238.604 43.312 238.738 42.64 239.004 42.064C239.303 41.4027 239.762 40.8853 240.38 40.512C240.999 40.1387 241.756 39.952 242.652 39.952C243.548 39.952 244.306 40.1387 244.924 40.512C245.554 40.8853 246.018 41.4027 246.316 42.064C246.583 42.6613 246.716 43.3333 246.716 44.08C246.716 44.8053 246.583 45.4773 246.316 46.096C246.018 46.7573 245.554 47.2747 244.924 47.648C244.306 48.0107 243.548 48.192 242.652 48.192ZM242.652 46.704C243.132 46.704 243.532 46.608 243.852 46.416C244.183 46.2133 244.428 45.936 244.588 45.584C244.748 45.2213 244.828 44.72 244.828 44.08C244.828 43.4293 244.748 42.928 244.588 42.576C244.428 42.2133 244.183 41.936 243.852 41.744C243.532 41.552 243.132 41.456 242.652 41.456C242.172 41.456 241.772 41.552 241.452 41.744C241.132 41.936 240.892 42.2133 240.732 42.576C240.562 42.9493 240.476 43.4507 240.476 44.08C240.476 44.6987 240.562 45.2 240.732 45.584C240.892 45.936 241.132 46.2133 241.452 46.416C241.772 46.608 242.172 46.704 242.652 46.704ZM254.756 41.536C254.969 42.0053 255.076 42.6293 255.076 43.408V48H253.3V47.12C252.735 47.8347 251.839 48.192 250.612 48.192C249.919 48.192 249.332 48.08 248.852 47.856C248.372 47.632 248.036 47.3013 247.844 46.864C247.705 46.5547 247.636 46.2027 247.636 45.808C247.636 45.4133 247.7 45.072 247.828 44.784C248.095 44.1973 248.548 43.7973 249.188 43.584C249.828 43.36 250.655 43.248 251.668 43.248H253.3V43.04C253.3 42.8373 253.289 42.672 253.268 42.544C253.247 42.4053 253.204 42.2667 253.14 42.128C252.905 41.616 252.361 41.36 251.508 41.36C251.071 41.36 250.713 41.4187 250.436 41.536C250.159 41.6533 249.961 41.84 249.844 42.096C249.769 42.288 249.732 42.464 249.732 42.624H247.94C247.94 42.176 248.015 41.7973 248.164 41.488C248.623 40.464 249.732 39.952 251.492 39.952C252.356 39.952 253.055 40.08 253.588 40.336C254.132 40.592 254.521 40.992 254.756 41.536ZM253.108 45.712C253.236 45.4027 253.3 45.04 253.3 44.624V44.528H251.78C251.193 44.528 250.708 44.576 250.324 44.672C249.94 44.768 249.689 44.944 249.572 45.2C249.508 45.328 249.476 45.4773 249.476 45.648C249.476 45.8187 249.508 45.9787 249.572 46.128C249.679 46.352 249.865 46.5173 250.132 46.624C250.399 46.7307 250.713 46.784 251.076 46.784C251.588 46.784 252.015 46.6933 252.356 46.512C252.697 46.3307 252.948 46.064 253.108 45.712ZM264.26 36.704V48H262.532V47.056C262.233 47.4293 261.86 47.712 261.412 47.904C260.974 48.096 260.478 48.192 259.924 48.192C259.156 48.192 258.5 48.0213 257.956 47.68C257.412 47.3387 257.001 46.8587 256.724 46.24C256.585 45.9307 256.478 45.5947 256.404 45.232C256.329 44.8587 256.292 44.4747 256.292 44.08C256.292 43.2693 256.436 42.544 256.724 41.904C257.001 41.2853 257.412 40.8053 257.956 40.464C258.5 40.1227 259.156 39.952 259.924 39.952C260.468 39.952 260.958 40.048 261.396 40.24C261.833 40.4213 262.201 40.6933 262.5 41.056V36.704H264.26ZM262.5 43.872C262.5 43.0933 262.308 42.496 261.924 42.08C261.55 41.664 261.033 41.456 260.372 41.456C259.913 41.456 259.518 41.552 259.188 41.744C258.857 41.9253 258.606 42.2027 258.436 42.576C258.265 42.9813 258.18 43.4827 258.18 44.08C258.18 44.6667 258.265 45.1627 258.436 45.568C258.606 45.9413 258.857 46.224 259.188 46.416C259.518 46.608 259.913 46.704 260.372 46.704C261.033 46.704 261.55 46.496 261.924 46.08C262.308 45.6533 262.5 45.0507 262.5 44.272V43.872ZM269.376 41.616H268.224V40.16H269.376V39.104C269.376 38.208 269.6 37.552 270.048 37.136C270.496 36.7093 271.2 36.496 272.16 36.496C272.523 36.496 272.875 36.5333 273.216 36.608V38.08C273.003 38.0053 272.747 37.968 272.448 37.968C271.584 37.968 271.152 38.4053 271.152 39.28V40.16H273.184V41.616H271.152V48H269.376V41.616ZM278.094 40.048C278.403 40.048 278.67 40.08 278.894 40.144V41.712C278.659 41.6587 278.393 41.632 278.094 41.632C277.411 41.632 276.894 41.84 276.542 42.256C276.201 42.6613 276.03 43.2533 276.03 44.032V48H274.254V40.16H276.014V41.072C276.473 40.3893 277.166 40.048 278.094 40.048ZM283.496 48.192C282.6 48.192 281.843 48.0053 281.224 47.632C280.605 47.2587 280.147 46.7413 279.848 46.08C279.581 45.5147 279.448 44.848 279.448 44.08C279.448 43.312 279.581 42.64 279.848 42.064C280.147 41.4027 280.605 40.8853 281.224 40.512C281.843 40.1387 282.6 39.952 283.496 39.952C284.392 39.952 285.149 40.1387 285.768 40.512C286.397 40.8853 286.861 41.4027 287.16 42.064C287.427 42.6613 287.56 43.3333 287.56 44.08C287.56 44.8053 287.427 45.4773 287.16 46.096C286.861 46.7573 286.397 47.2747 285.768 47.648C285.149 48.0107 284.392 48.192 283.496 48.192ZM283.496 46.704C283.976 46.704 284.376 46.608 284.696 46.416C285.027 46.2133 285.272 45.936 285.432 45.584C285.592 45.2213 285.672 44.72 285.672 44.08C285.672 43.4293 285.592 42.928 285.432 42.576C285.272 42.2133 285.027 41.936 284.696 41.744C284.376 41.552 283.976 41.456 283.496 41.456C283.016 41.456 282.616 41.552 282.296 41.744C281.976 41.936 281.736 42.2133 281.576 42.576C281.405 42.9493 281.32 43.4507 281.32 44.08C281.32 44.6987 281.405 45.2 281.576 45.584C281.736 45.936 281.976 46.2133 282.296 46.416C282.616 46.608 283.016 46.704 283.496 46.704ZM298.192 39.952C299.12 39.952 299.834 40.2293 300.336 40.784C300.848 41.328 301.104 42.1227 301.104 43.168V48H299.344V43.52C299.344 42.8053 299.205 42.2827 298.928 41.952C298.65 41.6213 298.234 41.456 297.68 41.456C297.082 41.456 296.629 41.6373 296.32 42C296.01 42.3627 295.856 42.8907 295.856 43.584V48H294.096V43.52C294.096 42.8053 293.957 42.2827 293.68 41.952C293.413 41.6213 292.997 41.456 292.432 41.456C291.845 41.456 291.397 41.6373 291.088 42C290.778 42.3627 290.624 42.8907 290.624 43.584V48H288.848V40.16H290.624V40.992C291.157 40.2987 291.946 39.952 292.992 39.952C293.61 39.952 294.138 40.0693 294.576 40.304C295.024 40.5387 295.354 40.8907 295.568 41.36C295.834 40.88 296.181 40.528 296.608 40.304C297.045 40.0693 297.573 39.952 298.192 39.952ZM313.166 36.704V48H311.438V47.056C311.139 47.4293 310.766 47.712 310.318 47.904C309.881 48.096 309.385 48.192 308.83 48.192C308.062 48.192 307.406 48.0213 306.862 47.68C306.318 47.3387 305.907 46.8587 305.63 46.24C305.491 45.9307 305.385 45.5947 305.31 45.232C305.235 44.8587 305.198 44.4747 305.198 44.08C305.198 43.2693 305.342 42.544 305.63 41.904C305.907 41.2853 306.318 40.8053 306.862 40.464C307.406 40.1227 308.062 39.952 308.83 39.952C309.374 39.952 309.865 40.048 310.302 40.24C310.739 40.4213 311.107 40.6933 311.406 41.056V36.704H313.166ZM311.406 43.872C311.406 43.0933 311.214 42.496 310.83 42.08C310.457 41.664 309.939 41.456 309.278 41.456C308.819 41.456 308.425 41.552 308.094 41.744C307.763 41.9253 307.513 42.2027 307.342 42.576C307.171 42.9813 307.086 43.4827 307.086 44.08C307.086 44.6667 307.171 45.1627 307.342 45.568C307.513 45.9413 307.763 46.224 308.094 46.416C308.425 46.608 308.819 46.704 309.278 46.704C309.939 46.704 310.457 46.496 310.83 46.08C311.214 45.6533 311.406 45.0507 311.406 44.272V43.872ZM320.192 46.288C320.33 46.16 320.442 46.0053 320.528 45.824C320.624 45.6427 320.682 45.4613 320.704 45.28H322.464C322.389 46.0693 322.08 46.72 321.536 47.232C321.184 47.5413 320.757 47.7813 320.256 47.952C319.754 48.112 319.205 48.192 318.608 48.192C317.69 48.192 316.906 48.0107 316.256 47.648C315.616 47.2853 315.146 46.7733 314.848 46.112C314.592 45.536 314.464 44.8533 314.464 44.064C314.464 43.6587 314.496 43.2907 314.56 42.96C314.624 42.6293 314.72 42.32 314.848 42.032C315.146 41.3707 315.605 40.8587 316.224 40.496C316.853 40.1333 317.605 39.952 318.48 39.952C319.354 39.952 320.101 40.1333 320.72 40.496C321.349 40.8587 321.808 41.3653 322.096 42.016C322.256 42.3787 322.362 42.7573 322.416 43.152C322.48 43.5467 322.512 44.016 322.512 44.56H316.256C316.288 45.0293 316.368 45.3973 316.496 45.664C316.656 46.0267 316.912 46.304 317.264 46.496C317.616 46.688 318.053 46.784 318.576 46.784C318.917 46.784 319.226 46.7413 319.504 46.656C319.781 46.5707 320.01 46.448 320.192 46.288ZM318.512 41.376C317.509 41.376 316.837 41.7547 316.496 42.512C316.389 42.7467 316.32 42.9973 316.288 43.264H320.688C320.656 42.9867 320.592 42.7147 320.496 42.448C320.325 42.096 320.074 41.8293 319.744 41.648C319.413 41.4667 319.002 41.376 318.512 41.376ZM322.642 40.16H324.562L326.706 46L328.834 40.16H330.754L327.698 48H325.714L322.642 40.16ZM332.557 38.976C332.237 38.976 331.975 38.8853 331.773 38.704C331.57 38.512 331.469 38.272 331.469 37.984C331.469 37.6853 331.565 37.4453 331.757 37.264C331.959 37.072 332.226 36.976 332.557 36.976C332.866 36.976 333.117 37.072 333.309 37.264C333.501 37.4453 333.597 37.6853 333.597 37.984C333.597 38.272 333.495 38.512 333.293 38.704C333.101 38.8853 332.855 38.976 332.557 38.976ZM331.645 40.16H333.421V48H331.645V40.16ZM338.698 48.192C337.834 48.192 337.093 48.016 336.474 47.664C335.855 47.3013 335.391 46.7893 335.082 46.128C334.826 45.552 334.698 44.8693 334.698 44.08C334.698 43.2907 334.826 42.608 335.082 42.032C335.391 41.36 335.855 40.848 336.474 40.496C337.093 40.1333 337.834 39.952 338.698 39.952C339.285 39.952 339.813 40.032 340.282 40.192C340.762 40.352 341.173 40.5867 341.514 40.896C341.813 41.1733 342.047 41.4987 342.218 41.872C342.389 42.2347 342.479 42.64 342.49 43.088H340.586C340.554 42.5973 340.378 42.1973 340.058 41.888C339.898 41.7493 339.701 41.6427 339.466 41.568C339.231 41.4933 338.975 41.456 338.698 41.456C338.261 41.456 337.882 41.552 337.562 41.744C337.242 41.936 337.002 42.2027 336.842 42.544C336.671 42.928 336.586 43.44 336.586 44.08C336.586 44.4 336.607 44.6827 336.65 44.928C336.693 45.1627 336.757 45.3867 336.842 45.6C337.002 45.9413 337.242 46.208 337.562 46.4C337.882 46.5813 338.261 46.672 338.698 46.672C338.986 46.672 339.247 46.6347 339.482 46.56C339.717 46.4853 339.909 46.3787 340.058 46.24C340.218 46.1013 340.341 45.9307 340.426 45.728C340.522 45.5253 340.575 45.3067 340.586 45.072H342.49C342.479 45.5093 342.389 45.9147 342.218 46.288C342.058 46.6613 341.829 46.9867 341.53 47.264C341.178 47.5627 340.762 47.792 340.282 47.952C339.802 48.112 339.274 48.192 338.698 48.192ZM349.192 46.288C349.33 46.16 349.442 46.0053 349.528 45.824C349.624 45.6427 349.682 45.4613 349.704 45.28H351.464C351.389 46.0693 351.08 46.72 350.536 47.232C350.184 47.5413 349.757 47.7813 349.256 47.952C348.754 48.112 348.205 48.192 347.608 48.192C346.69 48.192 345.906 48.0107 345.256 47.648C344.616 47.2853 344.146 46.7733 343.848 46.112C343.592 45.536 343.464 44.8533 343.464 44.064C343.464 43.6587 343.496 43.2907 343.56 42.96C343.624 42.6293 343.72 42.32 343.848 42.032C344.146 41.3707 344.605 40.8587 345.224 40.496C345.853 40.1333 346.605 39.952 347.48 39.952C348.354 39.952 349.101 40.1333 349.72 40.496C350.349 40.8587 350.808 41.3653 351.096 42.016C351.256 42.3787 351.362 42.7573 351.416 43.152C351.48 43.5467 351.512 44.016 351.512 44.56H345.256C345.288 45.0293 345.368 45.3973 345.496 45.664C345.656 46.0267 345.912 46.304 346.264 46.496C346.616 46.688 347.053 46.784 347.576 46.784C347.917 46.784 348.226 46.7413 348.504 46.656C348.781 46.5707 349.01 46.448 349.192 46.288ZM347.512 41.376C346.509 41.376 345.837 41.7547 345.496 42.512C345.389 42.7467 345.32 42.9973 345.288 43.264H349.688C349.656 42.9867 349.592 42.7147 349.496 42.448C349.325 42.096 349.074 41.8293 348.744 41.648C348.413 41.4667 348.002 41.376 347.512 41.376Z" fill="#212550"/>
<rect x="165.7" y="20.7" width="205.6" height="46.6" rx="23.3" stroke="#D6E1EA" stroke-width="1.4"/>
</svg>
